<svg width="172" height="111" xmlns="http://www.w3.org/2000/svg" xmlns:xlink="http://www.w3.org/1999/xlink" overflow="hidden"><defs><clipPath id="clip0"><path d="M275 67 447 67 447 178 275 178Z" fill-rule="evenodd" clip-rule="evenodd"/></clipPath><clipPath id="clip1"><path d="M276 68 446 68 446 178 276 178Z" fill-rule="evenodd" clip-rule="evenodd"/></clipPath><clipPath id="clip2"><path d="M276 67 429 67 429 178 276 178Z" fill-rule="evenodd" clip-rule="evenodd"/></clipPath><clipPath id="clip3"><path d="M-137-172 429-172 429 289-137 289Z" fill-rule="evenodd" clip-rule="evenodd"/></clipPath></defs><g clip-path="url(#clip0)" transform="translate(-275 -67)"><g clip-path="url(#clip1)"><g clip-path="url(#clip2)"><g clip-path="url(#clip3)"><path d="M471.788 445.64 478.107 445.64 501.276 385.574 494.956 385.574 471.788 445.64Z" fill="#2E2B2B" transform="matrix(1 0 -0 1.00408 -136.859 -171.397)"/><path d="M554.582 433.91 565.761 433.91 565.761 445.51 554.582 445.51Z" fill="#2E2B2B" transform="matrix(1 0 -0 1.00408 -136.859 -171.397)"/><path d="M478.227 397.473 470.128 397.473C468.064 397.468 466.209 398.731 465.458 400.653L455.099 426.901 445.3 400.733C444.571 398.769 442.695 397.468 440.6 397.473L431.891 397.473 448.569 440.19C449.376 442.247 448.362 444.567 446.306 445.374 445.842 445.556 445.348 445.649 444.85 445.65L439.25 445.65C437.593 445.65 436.25 446.993 436.25 448.649L436.25 457.649 447.18 457.649C451.594 457.635 455.555 454.934 457.179 450.829Z" fill="#2E2B2B" transform="matrix(1 0 -0 1.00408 -136.859 -171.397)"/><path d="M543.863 385.694 535.204 385.694 535.204 399.593C531.655 398.192 527.857 397.539 524.044 397.673 507.685 397.863 500.836 408.472 500.836 421.801 500.836 435.13 507.685 445.97 524.044 445.97 539.593 445.97 547.243 435.16 547.243 421.831L547.243 389.073C547.243 387.207 545.73 385.694 543.863 385.694ZM524.044 435.97C515.465 435.97 512.885 429.621 512.885 421.791 512.885 413.962 515.335 407.612 524.044 407.612 533.044 407.612 535.204 413.962 535.204 421.791 535.204 429.621 531.814 435.97 524.044 435.97Z" fill="#DA0E16" transform="matrix(1 0 -0 1.00408 -136.859 -171.397)"/><path d="M471.788 317.598 478.107 317.598 501.276 257.532 494.956 257.532 471.788 317.598Z" fill="#2E2B2B" transform="matrix(1 0 -0 1.00408 -136.859 -171.397)"/><path d="M554.582 305.869 565.761 305.869 565.761 317.468 554.582 317.468Z" fill="#2E2B2B" transform="matrix(1 0 -0 1.00408 -136.859 -171.397)"/><path d="M478.227 269.432 470.128 269.432C468.064 269.426 466.209 270.689 465.458 272.611L455.099 298.86 445.3 272.691C444.571 270.728 442.695 269.426 440.6 269.432L431.891 269.432 448.569 312.149C449.376 314.205 448.362 316.526 446.306 317.332 445.842 317.514 445.348 317.608 444.85 317.608L439.25 317.608C437.593 317.608 436.25 318.951 436.25 320.608L436.25 329.608 447.18 329.608C451.596 329.592 455.558 326.887 457.179 322.778Z" fill="#2E2B2B" transform="matrix(1 0 -0 1.00408 -136.859 -171.397)"/><path d="M543.863 257.652 535.204 257.652 535.204 271.552C531.655 270.151 527.857 269.497 524.044 269.632 507.685 269.822 500.836 280.431 500.836 293.76 500.836 307.089 507.685 317.888 524.044 317.888 539.593 317.888 547.243 307.089 547.243 293.76L547.243 261.032C547.243 259.166 545.73 257.652 543.863 257.652ZM524.044 307.979C515.465 307.979 512.885 301.629 512.885 293.8 512.885 285.971 515.335 279.621 524.044 279.621 533.044 279.621 535.204 285.971 535.204 293.8 535.204 301.629 531.814 307.979 524.044 307.979Z" fill="#2E2B2B" transform="matrix(1 0 -0 1.00408 -136.859 -171.397)"/><path d="M471.788 189.827 478.107 189.827 501.276 129.761 494.956 129.761 471.788 189.827Z" fill="#616160" transform="matrix(1 0 -0 1.00408 -136.859 -171.397)"/><path d="M554.582 178.108 565.761 178.108 565.761 189.707 554.582 189.707Z" fill="#616160" transform="matrix(1 0 -0 1.00408 -136.859 -171.397)"/><path d="M478.227 141.67 470.128 141.67C468.067 141.663 466.213 142.922 465.458 144.84L455.099 171.098 445.3 144.93C444.571 142.966 442.695 141.665 440.6 141.67L431.891 141.67 448.569 184.387C449.37 186.446 448.35 188.764 446.292 189.565 445.832 189.744 445.343 189.836 444.85 189.837L439.25 189.837C437.593 189.837 436.25 191.18 436.25 192.837L436.25 201.836 447.18 201.836C451.595 201.825 455.557 199.123 457.179 195.017Z" fill="#616160" transform="matrix(1 0 -0 1.00408 -136.859 -171.397)"/><path d="M543.863 129.881 535.204 129.881 535.204 143.79C531.656 142.386 527.857 141.729 524.044 141.86 507.685 142.05 500.836 152.67 500.836 165.999 500.836 179.328 507.685 190.127 524.044 190.127 539.593 190.127 547.243 179.328 547.243 165.999L547.243 133.271C547.248 131.404 545.74 129.887 543.873 129.881 543.87 129.881 543.866 129.881 543.863 129.881ZM524.044 180.178C515.465 180.178 512.885 173.828 512.885 165.999 512.885 158.169 515.335 151.82 524.044 151.82 533.044 151.82 535.204 158.169 535.204 165.999 535.204 173.828 531.814 180.178 524.044 180.178Z" fill="#616160" transform="matrix(1 0 -0 1.00408 -136.859 -171.397)"/><path d="M171.228 445.64 177.548 445.64 200.716 385.574 194.397 385.574 171.228 445.64Z" fill="#2E2B2B" transform="matrix(1 0 -0 1.00408 -136.859 -171.397)"/><path d="M349.366 433.91 360.545 433.91 360.545 445.51 349.366 445.51Z" fill="#2E2B2B" transform="matrix(1 0 -0 1.00408 -136.859 -171.397)"/><path d="M46.3368 397.473 38.2374 397.473C36.1701 397.463 34.3102 398.727 33.5577 400.653L23.2084 426.901 13.4091 400.733C12.6801 398.769 10.8042 397.468 8.70941 397.473L0 397.473 16.6789 440.19C17.4853 442.247 16.4719 444.567 14.4153 445.374 13.9639 445.551 13.484 445.644 12.9991 445.65L7.3595 445.65C5.70276 445.65 4.3597 446.993 4.3597 448.649L4.3597 457.649 15.259 457.649C19.6724 457.632 23.6318 454.932 25.2583 450.829Z" fill="#2E2B2B" transform="matrix(1 0 -0 1.00408 -136.859 -171.397)"/><path d="M68.3453 397.333C51.9865 397.523 45.1469 408.142 45.1469 421.461 45.1469 434.78 51.9865 445.6 68.3453 445.6 83.9043 445.6 91.5538 434.79 91.5538 421.461 91.5538 408.132 85.6142 397.133 68.3453 397.333ZM68.3453 435.64C59.7659 435.64 57.1861 429.301 57.1861 421.461 57.1861 413.622 59.6359 407.292 68.3453 407.292 77.3447 407.292 79.5046 413.632 79.5046 421.461 79.5046 429.291 76.1248 435.64 68.3453 435.64Z" fill="#2E2B2B" transform="matrix(1 0 -0 1.00408 -136.859 -171.397)"/><path d="M128.991 422.061C128.991 429.381 125.711 435.34 117.992 435.32 109.843 435.32 106.993 429.381 106.993 422.061L106.993 400.183 106.993 400.183C106.987 398.611 105.715 397.338 104.143 397.333L94.7535 397.333 94.7535 421.531C94.7535 421.641 94.7535 421.751 94.7535 421.861 94.9235 435.07 102.223 445.74 118.012 445.74 133.341 445.74 141.1 435.07 141.27 421.861L141.27 397.333 131.821 397.333C130.249 397.338 128.977 398.611 128.971 400.183L128.971 400.183Z" fill="#2E2B2B" transform="matrix(1 0 -0 1.00408 -136.859 -171.397)"/><path d="M168.918 397.063 159.919 397.063C152.341 397.068 146.2 403.214 146.2 410.792L146.2 445.28 153.99 445.28C156.447 445.28 158.439 443.287 158.439 440.83L158.439 412.972C158.439 410.962 160.069 409.332 162.079 409.332L164.269 409.332C166.82 409.332 168.888 407.264 168.888 404.712Z" fill="#2E2B2B" transform="matrix(1 0 -0 1.00408 -136.859 -171.397)"/><path d="M243.303 385.694 234.644 385.694 234.644 399.593C231.096 398.192 227.297 397.539 223.485 397.673 207.126 397.863 200.276 408.472 200.276 421.801 200.276 435.13 207.126 445.97 223.485 445.97 239.034 445.97 246.683 435.16 246.683 421.831L246.683 389.073C246.683 387.207 245.17 385.694 243.303 385.694ZM223.485 435.97C214.905 435.97 212.326 429.621 212.326 421.791 212.326 413.962 214.775 407.612 223.485 407.612 232.484 407.612 234.644 413.962 234.644 421.791 234.644 429.621 231.254 435.97 223.485 435.97Z" fill="#DA0E16" transform="matrix(1 0 -0 1.00408 -136.859 -171.397)"/><path d="M296.51 426.291C297.858 426.288 298.97 425.237 299.05 423.891 299.1 423.151 299.13 422.391 299.13 421.631 299.136 419.596 298.982 417.563 298.67 415.552 296.98 405.122 290.48 397.333 275.921 397.503 259.572 397.693 252.723 408.302 252.723 421.631 252.723 434.96 259.572 445.76 275.921 445.76 286.57 445.76 293.51 440.7 296.83 433.22 297.073 432.676 296.828 432.037 296.284 431.794 296.141 431.731 295.986 431.699 295.83 431.701L284.381 431.701C282.44 434.417 279.256 435.964 275.921 435.81 269.142 435.81 266.112 431.811 265.142 426.291ZM275.921 407.452C282.391 407.452 285.331 410.772 286.47 415.552L265.422 415.552C266.622 410.772 269.642 407.452 275.921 407.452Z" fill="#DA0E16" transform="matrix(1 0 -0 1.00408 -136.859 -171.397)"/><path d="M333.697 400.803 321.648 432.471 309.899 400.823C309.168 398.88 307.314 397.591 305.239 397.583L297.78 397.583 314.979 444.03C315.353 445.037 316.314 445.706 317.388 445.71L325.828 445.71C326.899 445.705 327.857 445.041 328.238 444.04L345.696 397.553 338.317 397.553C336.254 397.579 334.419 398.87 333.697 400.803Z" fill="#DA0E16" transform="matrix(1 0 -0 1.00408 -136.859 -171.397)"/><path d="M171.228 317.598 177.548 317.598 200.716 257.532 194.397 257.532 171.228 317.598Z" fill="#2E2B2B" transform="matrix(1 0 -0 1.00408 -136.859 -171.397)"/><path d="M349.366 305.869 360.545 305.869 360.545 317.468 349.366 317.468Z" fill="#2E2B2B" transform="matrix(1 0 -0 1.00408 -136.859 -171.397)"/><path d="M46.3368 269.432 38.2374 269.432C36.1701 269.422 34.3102 270.686 33.5577 272.611L23.2084 298.86 13.4091 272.691C12.6801 270.728 10.8042 269.426 8.70941 269.432L0 269.432 16.6789 312.149C17.4853 314.205 16.4719 316.526 14.4153 317.333 13.9639 317.51 13.484 317.603 12.9991 317.608L7.3595 317.608C5.70276 317.608 4.3597 318.951 4.3597 320.608L4.3597 329.608 15.259 329.608C19.6749 329.59 23.635 326.885 25.2583 322.778Z" fill="#2E2B2B" transform="matrix(1 0 -0 1.00408 -136.859 -171.397)"/><path d="M68.3453 269.292C51.9865 269.482 45.1469 280.091 45.1469 293.42 45.1469 306.749 51.9865 317.558 68.3453 317.558 83.9043 317.558 91.5538 306.749 91.5538 293.42 91.5538 280.091 85.6142 269.092 68.3453 269.292ZM68.3453 307.599C59.7659 307.599 57.1861 301.249 57.1861 293.42 57.1861 285.591 59.6359 279.241 68.3453 279.241 77.3447 279.241 79.5046 285.591 79.5046 293.42 79.5046 301.249 76.1248 307.599 68.3453 307.599Z" fill="#2E2B2B" transform="matrix(1 0 -0 1.00408 -136.859 -171.397)"/><path d="M128.991 293.98C128.991 301.309 125.711 307.269 117.992 307.249 109.843 307.249 106.993 301.309 106.993 293.98L106.993 272.141 106.993 272.141C106.987 270.57 105.715 269.297 104.143 269.292L94.7535 269.292 94.7535 293.49C94.7535 293.6 94.7535 293.71 94.7535 293.81 94.9235 307.029 102.223 317.698 118.012 317.698 133.341 317.698 141.1 307.029 141.27 293.81L141.27 269.292 131.821 269.292C130.249 269.297 128.977 270.57 128.971 272.141L128.971 272.141Z" fill="#2E2B2B" transform="matrix(1 0 -0 1.00408 -136.859 -171.397)"/><path d="M168.918 268.982 159.919 268.982C152.341 268.987 146.2 275.132 146.2 282.711L146.2 317.198 153.99 317.198C156.447 317.198 158.439 315.206 158.439 312.749L158.439 284.921C158.445 282.914 160.073 281.291 162.079 281.291L164.269 281.291C166.82 281.291 168.888 279.223 168.888 276.671Z" fill="#2E2B2B" transform="matrix(1 0 -0 1.00408 -136.859 -171.397)"/><path d="M243.303 257.652 234.644 257.652 234.644 271.552C231.096 270.151 227.297 269.497 223.485 269.632 207.126 269.822 200.276 280.431 200.276 293.76 200.276 307.089 207.126 317.888 223.485 317.888 239.034 317.888 246.683 307.089 246.683 293.76L246.683 261.032C246.683 259.166 245.17 257.652 243.303 257.652ZM223.485 307.979C214.905 307.979 212.326 301.629 212.326 293.8 212.326 285.971 214.775 279.621 223.485 279.621 232.484 279.621 234.644 285.971 234.644 293.8 234.644 301.629 231.254 307.979 223.485 307.979Z" fill="#2E2B2B" transform="matrix(1 0 -0 1.00408 -136.859 -171.397)"/><path d="M296.51 298.25C297.858 298.247 298.97 297.195 299.05 295.85 299.1 295.11 299.13 294.35 299.13 293.59 299.136 291.555 298.982 289.522 298.67 287.51 296.98 277.081 290.48 269.292 275.921 269.452 259.572 269.642 252.723 280.261 252.723 293.59 252.723 306.919 259.572 317.718 275.921 317.718 286.57 317.718 293.51 312.649 296.83 305.179 297.073 304.635 296.828 303.996 296.284 303.753 296.141 303.689 295.986 303.657 295.83 303.659L284.381 303.659C282.44 306.375 279.256 307.923 275.921 307.769 269.142 307.769 266.112 303.769 265.142 298.25ZM275.921 279.411C282.391 279.411 285.331 282.731 286.47 287.51L265.422 287.51C266.622 282.731 269.642 279.411 275.921 279.411Z" fill="#2E2B2B" transform="matrix(1 0 -0 1.00408 -136.859 -171.397)"/><path d="M333.697 272.761 321.648 304.419 309.899 272.781C309.168 270.839 307.314 269.55 305.239 269.542L297.78 269.542 314.979 315.978C315.349 316.989 316.312 317.661 317.388 317.658L325.828 317.658C326.901 317.659 327.862 316.994 328.238 315.988L345.696 269.512 338.317 269.512C336.254 269.538 334.419 270.829 333.697 272.761Z" fill="#2E2B2B" transform="matrix(1 0 -0 1.00408 -136.859 -171.397)"/><path d="M171.228 189.827 177.548 189.827 200.716 129.761 194.397 129.761 171.228 189.827Z" fill="#616160" transform="matrix(1 0 -0 1.00408 -136.859 -171.397)"/><path d="M349.366 178.108 360.545 178.108 360.545 189.707 349.366 189.707Z" fill="#616160" transform="matrix(1 0 -0 1.00408 -136.859 -171.397)"/><path d="M46.3368 141.67 38.2374 141.67C36.1726 141.659 34.3134 142.919 33.5577 144.84L23.2084 171.098 13.4091 144.93C12.6801 142.966 10.8042 141.665 8.70941 141.67L0 141.67 16.6789 184.387C17.4798 186.446 16.4602 188.764 14.4015 189.565 13.9541 189.739 13.4791 189.831 12.9991 189.837L7.3595 189.837C5.70276 189.837 4.3597 191.18 4.3597 192.837L4.3597 201.836 15.259 201.836C19.6733 201.823 23.6341 199.121 25.2583 195.017Z" fill="#616160" transform="matrix(1 0 -0 1.00408 -136.859 -171.397)"/><path d="M68.3453 141.53C51.9865 141.71 45.1469 152.33 45.1469 165.659 45.1469 178.988 51.9965 189.787 68.3453 189.787 83.9043 189.787 91.5538 178.988 91.5538 165.659 91.5538 152.33 85.6142 141.33 68.3453 141.53ZM68.3453 179.838C59.7659 179.838 57.1861 173.488 57.1861 165.659 57.1861 157.829 59.6359 151.48 68.3453 151.48 77.3447 151.48 79.5046 157.829 79.5046 165.659 79.5046 173.488 76.1248 179.838 68.3453 179.838Z" fill="#616160" transform="matrix(1 0 -0 1.00408 -136.859 -171.397)"/><path d="M128.991 166.249C128.991 173.578 125.711 179.538 117.992 179.508 109.843 179.508 106.993 173.578 106.993 166.249L106.993 144.38 106.993 144.38C106.993 142.806 105.717 141.53 104.143 141.53L94.7535 141.53 94.7535 165.729C94.7535 165.839 94.7535 165.939 94.7535 166.049 94.9235 179.268 102.223 189.927 118.012 189.927 133.341 189.927 141.1 179.268 141.27 166.049L141.27 141.53 131.821 141.53C130.247 141.53 128.971 142.806 128.971 144.38L128.971 144.38Z" fill="#616160" transform="matrix(1 0 -0 1.00408 -136.859 -171.397)"/><path d="M168.918 141.26 159.919 141.26C152.342 141.266 146.205 147.413 146.21 154.989L146.21 189.487 153.99 189.487C156.447 189.487 158.439 187.495 158.439 185.037L158.439 157.159C158.439 155.149 160.069 153.52 162.079 153.52L164.269 153.52C166.82 153.52 168.888 151.451 168.888 148.9Z" fill="#616160" transform="matrix(1 0 -0 1.00408 -136.859 -171.397)"/><path d="M243.303 129.881 234.644 129.881 234.644 143.79C231.097 142.386 227.298 141.729 223.485 141.86 207.126 142.05 200.276 152.67 200.276 165.999 200.276 179.328 207.126 190.127 223.485 190.127 239.034 190.127 246.683 179.328 246.683 165.999L246.683 133.271C246.689 131.404 245.18 129.887 243.313 129.881 243.31 129.881 243.307 129.881 243.303 129.881ZM223.485 180.178C214.905 180.178 212.326 173.828 212.326 165.999 212.326 158.169 214.775 151.82 223.485 151.82 232.484 151.82 234.644 158.169 234.644 165.999 234.644 173.828 231.254 180.178 223.485 180.178Z" fill="#616160" transform="matrix(1 0 -0 1.00408 -136.859 -171.397)"/><path d="M296.51 170.488C297.856 170.48 298.966 169.432 299.05 168.089 299.1 167.339 299.13 166.589 299.13 165.819 299.136 163.787 298.982 161.757 298.67 159.749 296.98 149.31 290.48 141.52 275.921 141.69 259.572 141.88 252.723 152.5 252.723 165.819 252.723 179.138 259.572 189.987 275.921 189.987 286.57 189.987 293.51 184.917 296.83 177.448 297.073 176.903 296.828 176.265 296.284 176.022 296.141 175.958 295.986 175.926 295.83 175.928L284.381 175.928C282.436 178.637 279.253 180.18 275.921 180.028 269.142 180.028 266.112 176.028 265.142 170.518ZM275.921 151.65C282.391 151.65 285.331 154.959 286.47 159.749L265.422 159.749C266.622 154.989 269.642 151.65 275.921 151.65Z" fill="#616160" transform="matrix(1 0 -0 1.00408 -136.859 -171.397)"/><path d="M333.697 144.99 321.648 176.658 309.899 144.99C309.168 143.048 307.314 141.759 305.239 141.75L297.78 141.75 314.979 188.217C315.349 189.228 316.312 189.9 317.388 189.897L325.828 189.897C326.899 189.892 327.857 189.229 328.238 188.227L345.696 141.75 338.317 141.75C336.257 141.775 334.422 143.061 333.697 144.99Z" fill="#616160" transform="matrix(1 0 -0 1.00408 -136.859 -171.397)"/><path d="M176.918 60.0659 183.238 60.0659 206.416 0 200.096 0 176.918 60.0659Z" fill="#FFFFFF" transform="matrix(1 0 -0 1.00408 -136.859 -171.397)"/><path d="M355.066 48.3367 366.245 48.3367 366.245 59.9359 355.066 59.9359Z" fill="#FFFFFF" transform="matrix(1 0 -0 1.00408 -136.859 -171.397)"/><path d="M51.9965 11.8992 43.927 11.8992C41.8634 11.8938 40.0085 13.1569 39.2573 15.079L28.898 41.3272 19.1087 15.159C18.3785 13.1917 16.4974 11.8897 14.399 11.8992L5.69961 11.8992 22.3785 54.6163C23.1848 56.6729 22.1712 58.9937 20.1146 59.8 19.6476 59.983 19.1503 60.0767 18.6487 60.0759L13.0591 60.0759C11.4024 60.0759 10.0593 61.419 10.0593 63.0757L10.0593 72.0751 20.9986 72.0751C25.4138 72.0643 29.376 69.3621 30.9979 65.2556Z" fill="#FFFFFF" transform="matrix(1 0 -0 1.00408 -136.859 -171.397)"/><path d="M74.045 11.7592C57.6861 11.9992 50.8465 22.5685 50.8465 35.8976 50.8465 49.2266 57.6861 59.9959 74.045 59.9959 89.5939 59.9959 97.2434 49.1866 97.2434 35.8676 97.2434 22.5485 91.3138 11.5592 74.045 11.7592ZM74.045 50.0666C65.4655 50.0666 62.8857 43.727 62.8857 35.8976 62.8857 28.0681 65.3355 21.7185 74.045 21.7185 83.0443 21.7185 85.2042 28.0581 85.2042 35.8976 85.2042 43.737 81.8144 50.0666 74.045 50.0666Z" fill="#FFFFFF" transform="matrix(1 0 -0 1.00408 -136.859 -171.397)"/><path d="M134.671 36.4875C134.671 43.807 131.401 49.7666 123.672 49.7466 115.532 49.7466 112.672 43.807 112.672 36.4875L112.672 14.609 112.672 14.609C112.672 13.0351 111.396 11.7592 109.823 11.7592L100.373 11.7592 100.373 35.9975C100.373 36.0975 100.373 36.2075 100.373 36.3175 100.533 49.5366 107.833 60.1959 123.622 60.1959 138.951 60.1959 146.72 49.5366 146.88 36.3175 146.88 36.2075 146.88 36.0975 146.88 35.9975L146.88 11.7592 137.431 11.7592C135.855 11.7592 134.576 13.0335 134.571 14.609L134.571 14.609Z" fill="#FFFFFF" transform="matrix(1 0 -0 1.00408 -136.859 -171.397)"/><path d="M174.618 11.4892 165.619 11.4892C158.036 11.4892 151.89 17.6359 151.89 25.2183L151.89 59.7059 159.709 59.7059C162.167 59.7059 164.159 57.7137 164.159 55.2562L164.159 27.3981C164.159 25.3919 165.782 23.7639 167.789 23.7584L169.988 23.7584C172.54 23.7584 174.608 21.6901 174.608 19.1387Z" fill="#FFFFFF" transform="matrix(1 0 -0 1.00408 -136.859 -171.397)"/><path d="M248.983 0.119992 240.324 0.119992 240.324 13.999C236.776 12.5978 232.977 11.9442 229.164 12.0792 212.806 12.2692 205.966 22.8784 205.966 36.2075 205.966 49.5366 212.806 60.3459 229.164 60.3459 244.723 60.3459 252.373 49.5366 252.373 36.2075L252.373 3.49976C252.367 1.63155 250.851 0.119984 248.983 0.119992ZM229.174 50.4066C220.595 50.4066 218.015 44.057 218.015 36.2275 218.015 28.3981 220.465 22.0485 229.174 22.0485 238.174 22.0485 240.334 28.3981 240.334 36.2275 240.334 44.057 236.984 50.4066 229.174 50.4066Z" fill="#FFFFFF" transform="matrix(1 0 -0 1.00408 -136.859 -171.397)"/><path d="M302.209 40.7272C303.555 40.7193 304.665 39.6706 304.749 38.3274 304.799 37.5774 304.819 36.8275 304.819 36.0575 304.831 34.0252 304.677 31.9953 304.359 29.988 302.679 19.5487 296.17 11.7592 281.621 11.9292 265.262 12.1192 258.422 22.7285 258.422 36.0575 258.422 49.3866 265.262 60.1959 281.621 60.1959 292.27 60.1959 299.21 55.1262 302.529 47.6468 302.772 47.1021 302.528 46.4635 301.983 46.2205 301.841 46.1568 301.686 46.1249 301.529 46.1269L290.08 46.1269C288.139 48.8415 284.955 50.3884 281.621 50.2366 274.841 50.2366 271.811 46.2369 270.842 40.7272ZM281.621 21.8785C288.09 21.8785 291.02 25.1983 292.16 29.988L271.162 29.988C272.321 25.1983 275.331 21.8785 281.621 21.8785Z" fill="#FFFFFF" transform="matrix(1 0 -0 1.00408 -136.859 -171.397)"/><path d="M339.387 15.229 327.388 46.8968 315.598 15.249C314.877 13.3163 313.042 12.0255 310.979 11.9992L303.479 11.9992 320.668 58.446C321.044 59.4567 322.01 60.1268 323.088 60.1259L331.527 60.1259C332.611 60.1396 333.588 59.4773 333.977 58.466L351.396 11.9992 343.977 11.9992C341.93 12.0346 340.111 13.3143 339.387 15.229Z" fill="#FFFFFF" transform="matrix(1 0 -0 1.00408 -136.859 -171.397)"/><path d="M470.928 60.0659 477.247 60.0659 500.416 0 494.096 0 470.928 60.0659Z" fill="#FFFFFF" transform="matrix(1 0 -0 1.00408 -136.859 -171.397)"/><path d="M553.722 48.3367 564.901 48.3367 564.901 59.9359 553.722 59.9359Z" fill="#FFFFFF" transform="matrix(1 0 -0 1.00408 -136.859 -171.397)"/><path d="M477.377 11.8992 469.268 11.8992C467.204 11.8938 465.349 13.1569 464.598 15.079L454.239 41.3272 444.44 15.159C443.711 13.1951 441.835 11.8939 439.74 11.8992L431.031 11.8992 447.719 54.6163C448.526 56.6728 447.512 58.9937 445.456 59.8 444.982 59.9856 444.478 60.0792 443.97 60.0759L438.38 60.0759C436.723 60.0759 435.38 61.419 435.38 63.0757L435.38 72.0751 446.31 72.0751C450.725 72.0643 454.687 69.3621 456.309 65.2556Z" fill="#FFFFFF" transform="matrix(1 0 -0 1.00408 -136.859 -171.397)"/><path d="M542.963 0.119992 534.304 0.119992 534.304 13.999C530.756 12.5978 526.957 11.9442 523.144 12.0792 506.785 12.2692 499.946 22.8784 499.946 36.2075 499.946 49.5366 506.785 60.3459 523.144 60.3459 538.693 60.3459 546.343 49.5366 546.343 36.2075L546.343 3.49976C546.343 1.63317 544.83 0.119992 542.963 0.119992ZM523.184 50.4066C514.605 50.4066 512.025 44.057 512.025 36.2275 512.025 28.3981 514.475 22.0485 523.184 22.0485 532.184 22.0485 534.344 28.3981 534.344 36.2275 534.344 44.057 530.964 50.4066 523.184 50.4066Z" fill="#FFFFFF" transform="matrix(1 0 -0 1.00408 -136.859 -171.397)"/></g></g></g></g></svg>