<svg width="60" height="60" viewBox="0 0 60 60" fill="none" xmlns="http://www.w3.org/2000/svg">
<path d="M28.6759 36.4816C32.2581 36.4816 35.1619 33.5804 35.1619 30.0016C35.1619 26.4228 32.2581 23.5216 28.6759 23.5216C25.0938 23.5216 22.1899 26.4228 22.1899 30.0016C22.1899 33.5804 25.0938 36.4816 28.6759 36.4816Z" fill="white"/>
<path d="M30.0061 5.64001C25.187 5.64001 20.4761 7.0687 16.4691 9.74541C12.4622 12.4221 9.3391 16.2266 7.4949 20.6778C5.65069 25.129 5.16817 30.027 6.10833 34.7524C7.0485 39.4778 9.36914 43.8183 12.7768 47.2251C16.1844 50.6319 20.526 52.952 25.2526 53.8919C29.9791 54.8319 34.8783 54.3495 39.3306 52.5057C43.7829 50.662 47.5884 47.5397 50.2657 43.5337C52.9431 39.5277 54.3721 34.818 54.3721 30C54.3721 23.5393 51.805 17.3433 47.2355 12.7749C42.666 8.20651 36.4684 5.64001 30.0061 5.64001ZM36.4361 35.4133C35.3239 37.0152 33.7444 38.2349 31.9132 38.9061C30.0819 39.5772 28.0881 39.667 26.2039 39.1633C24.3197 38.6595 22.6369 37.5868 21.3851 36.0914C20.1334 34.596 19.3737 32.7509 19.2097 30.8079C19.0458 28.8649 19.4855 26.9186 20.469 25.2347C21.6342 23.2397 24.01 21.5189 26.2779 20.8476C28.088 20.3117 30.0813 20.5321 31.9122 21.2636C33.7452 21.97 35.1717 23.2397 36.4361 25.2347C37.6595 26.9194 38.0128 28.5363 38.1281 30.8079C38.1523 31.2845 38.1281 32.03 38.1281 32.03C38.1281 32.9273 38.4847 33.7879 39.1193 34.4224C39.754 35.0569 40.6148 35.4133 41.5123 35.4133C42.4098 35.4133 43.2706 35.0569 43.9053 34.4224C44.5399 33.7879 44.8965 32.9273 44.8965 32.03V30C44.8953 26.556 43.6998 23.2189 41.5135 20.5573C39.3272 17.8957 36.2855 16.0743 32.9066 15.4034C29.5277 14.7326 26.0207 15.2537 22.983 16.8782C19.9454 18.5026 17.5651 21.1297 16.2477 24.312C14.9303 27.4942 14.7573 31.0347 15.7582 34.3302C16.7591 37.6257 18.8719 40.4722 21.7367 42.3849C24.6015 44.2976 28.0411 45.158 31.4693 44.8196C34.8975 44.4811 38.1023 42.9648 40.5377 40.5289C40.7966 40.3072 41.1297 40.1914 41.4704 40.2045C41.8111 40.2177 42.1343 40.3589 42.3754 40.5999C42.6164 40.8409 42.7577 41.164 42.7708 41.5046C42.784 41.8452 42.6681 42.1782 42.4463 42.4371C31.3598 53.4939 12.4085 45.5769 12.4085 30C12.4085 25.334 14.2625 20.859 17.5627 17.5596C20.8629 14.2603 25.339 12.4067 30.0061 12.4067C34.6733 12.4067 39.1494 14.2603 42.4496 17.5596C45.7498 20.859 47.6038 25.334 47.6038 30V32.03C47.6075 33.3397 47.1887 34.6157 46.4096 35.6687C45.6305 36.7216 44.5327 37.4954 43.2789 37.8753C42.0252 38.2551 40.6823 38.2207 39.4497 37.7772C38.217 37.3338 37.1602 36.5048 36.4361 35.4133Z" fill="white"/>
<path d="M30 0C13.4324 0 0 13.4324 0 30C0 46.5676 13.4324 60 30 60C46.5676 60 60 46.5676 60 30C60 13.4324 46.5676 0 30 0ZM30 55.2994C16.0256 55.2994 4.69876 43.9744 4.69876 30C4.69876 16.0256 16.0256 4.69876 30 4.69876C43.9744 4.69876 55.3013 16.0256 55.3013 30C55.3013 43.9744 43.9744 55.2994 30 55.2994Z" fill="white"/>
</svg>
