<svg width="60" height="60" viewBox="0 0 60 60" fill="none" xmlns="http://www.w3.org/2000/svg">
<path d="M30.0001 5.63629C16.5676 5.63629 5.63818 16.5657 5.63818 30C5.63818 43.4325 16.5676 54.3619 30.0001 54.3619C43.4326 54.3619 54.3638 43.4325 54.3638 30C54.3638 16.5657 43.4326 5.63629 30.0001 5.63629ZM22.5807 41.1132H16.7569V23.5857H22.5826V41.1132H22.5807ZM19.6688 21.1932H19.6313C17.6757 21.1932 16.4119 19.8469 16.4119 18.1632C16.4119 16.4438 17.7151 15.135 19.7082 15.135C21.7013 15.135 22.9276 16.4438 22.9669 18.1632C22.9651 19.8469 21.6994 21.1932 19.6688 21.1932ZM43.5882 41.1132H37.7626V31.7363C37.7626 29.3813 36.9207 27.7744 34.8113 27.7744C33.2026 27.7744 32.2444 28.8582 31.8244 29.9044C31.6707 30.2794 31.6332 30.8025 31.6332 31.3238V41.1132H25.8076C25.8076 41.1132 25.8844 25.23 25.8076 23.5857H31.6332V26.0682C32.4057 24.8738 33.7913 23.1732 36.8832 23.1732C40.7157 23.1732 43.5901 25.6782 43.5901 31.0632V41.1132H43.5882Z" fill="white"/>
<path d="M30 0C13.4325 0 0 13.4306 0 30C0 46.5675 13.4325 60 30 60C46.5675 60 60 46.5675 60 30C60 13.4306 46.5675 0 30 0ZM30 55.2994C16.0256 55.2994 4.70062 43.9725 4.70062 30C4.70062 16.0256 16.0256 4.69875 30 4.69875C43.9744 4.69875 55.3013 16.0256 55.3013 30C55.3013 43.9725 43.9744 55.2994 30 55.2994Z" fill="white"/>
</svg>
