<svg width="428" height="74" viewBox="0 0 428 74" fill="none" xmlns="http://www.w3.org/2000/svg">
<path d="M345.841 34.6456C345.841 33.1863 345.709 31.7541 345.445 30.3489C345.247 28.8896 344.752 27.5925 343.961 26.4575C343.235 25.2685 342.113 24.3227 340.595 23.6201C339.078 22.9175 337.032 22.5662 334.458 22.5662C332.017 22.5662 330.037 22.9716 328.52 23.7822C327.068 24.5929 325.946 25.6198 325.154 26.8629C324.362 28.0519 323.835 29.349 323.571 30.7542C323.307 32.1594 323.175 33.4565 323.175 34.6456C323.175 35.8346 323.307 37.1317 323.571 38.5369C323.835 39.9421 324.362 41.2662 325.154 42.5093C325.946 43.6983 327.068 44.6982 328.52 45.5089C330.037 46.3196 332.017 46.7249 334.458 46.7249C336.9 46.7249 338.847 46.3196 340.298 45.5089C341.816 44.6982 342.971 43.6983 343.763 42.5093C344.621 41.2662 345.181 39.9421 345.445 38.5369C345.709 37.1317 345.841 35.8346 345.841 34.6456ZM334.458 13C338.616 13 342.146 13.4864 345.049 14.4593C347.953 15.4321 350.328 16.8643 352.176 18.7559C354.09 20.5935 355.475 22.8635 356.333 25.5658C357.191 28.214 357.62 31.2406 357.62 34.6456V53.1294C357.62 54.7508 357.488 56.2371 357.224 57.5882C357.026 58.9934 356.729 60.2906 356.333 61.4796C355.739 63.2631 354.75 64.8845 353.364 66.3437C352.044 67.857 350.328 69.1542 348.217 70.2351C346.105 71.316 343.598 72.1537 340.694 72.7482C337.791 73.3427 334.458 73.64 330.697 73.64L317.533 73.5589V64.3981H328.223C332.71 64.3981 336.141 64.0198 338.517 63.2631C340.892 62.5065 342.608 61.5877 343.664 60.5067C344.785 59.4799 345.412 58.426 345.544 57.345C345.742 56.2641 345.841 55.4264 345.841 54.8319V49.4813L348.019 47.1303C346.897 49.4002 345.478 51.1297 343.763 52.3187C342.047 53.5077 340.364 54.3725 338.715 54.9129C336.801 55.5075 334.821 55.8588 332.776 55.9668C328.685 55.9128 325.055 55.1561 321.888 53.6969C320.502 53.0483 319.149 52.2376 317.83 51.2648C316.576 50.2379 315.421 48.9678 314.365 47.4545C313.376 45.9412 312.551 44.1307 311.891 42.0229C311.297 39.9151 311 37.456 311 34.6456C311 31.8352 311.33 29.376 311.99 27.2682C312.65 25.1604 313.508 23.3499 314.563 21.8366C315.685 20.2692 316.939 18.9721 318.325 17.9452C319.776 16.9184 321.228 16.0806 322.68 15.4321C326.111 13.9188 330.037 13.1081 334.458 13Z" fill="#2E2B2B"/>
<path d="M234.162 22.4005C231.588 22.4005 229.542 22.7824 228.025 23.5463C226.507 24.3102 225.352 25.3385 224.56 26.6312C223.835 27.8651 223.34 29.2754 223.076 30.8619C222.878 32.3896 222.779 33.9467 222.779 35.5333C222.779 36.826 222.911 38.2362 223.175 39.764C223.439 41.2917 223.966 42.7313 224.758 44.0828C225.616 45.3755 226.771 46.4626 228.223 47.344C229.74 48.2253 231.72 48.666 234.162 48.666C236.603 48.666 238.55 48.2253 240.001 47.344C241.519 46.4626 242.674 45.3755 243.466 44.0828C244.258 42.7313 244.785 41.2917 245.049 39.764C245.313 38.2362 245.445 36.826 245.445 35.5333C245.445 34.2405 245.313 32.8303 245.049 31.3026C244.785 29.7748 244.258 28.3646 243.466 27.0719C242.674 25.7204 241.519 24.604 240.001 23.7226C238.55 22.8412 236.603 22.4005 234.162 22.4005ZM211 35.6214C211 31.9195 211.429 28.629 212.287 25.7498C213.145 22.8118 214.497 20.3439 216.345 18.346C218.259 16.2895 220.667 14.7323 223.571 13.6746C226.474 12.5582 230.004 12 234.162 12C238.517 12.1175 242.41 12.9989 245.841 14.6442C247.293 15.3493 248.712 16.2601 250.097 17.3765C251.549 18.4929 252.803 19.9032 253.859 21.6072C254.981 23.2525 255.871 25.2209 256.531 27.5126C257.257 29.8042 257.62 32.4778 257.62 35.5333C257.62 38.5888 257.29 41.2623 256.63 43.554C256.036 45.8456 255.211 47.814 254.156 49.4593C253.166 51.1046 252.011 52.4854 250.691 53.6019C249.438 54.6595 248.118 55.5409 246.732 56.246C243.565 57.8326 239.935 58.6552 235.844 58.714C233.799 58.5964 231.819 58.2145 229.905 57.5681C228.256 56.9805 226.573 56.0404 224.857 54.7477C223.142 53.455 221.723 51.5746 220.601 49.1067L222.779 51.6628V72.64H211V35.6214Z" fill="#2E2B2B"/>
<path d="M306.62 59.5751H294.841V53.1708L297.019 50.5175C295.897 53.0793 294.478 55.0311 292.763 56.3729C291.047 57.7148 289.364 58.6907 287.715 59.3006C285.801 59.9716 283.821 60.368 281.776 60.49C277.685 60.429 274.055 59.5751 270.888 57.9283C269.502 57.1963 268.149 56.2814 266.83 55.1835C265.576 54.0247 264.421 52.5913 263.365 50.8835C262.376 49.1757 261.551 47.1324 260.891 44.7536C260.297 42.3749 260 39.5997 260 36.428C260 33.2563 260.33 30.4811 260.99 28.1023C261.65 25.7236 262.508 23.6803 263.563 21.9725C264.685 20.2037 265.939 18.7398 267.325 17.5809C268.776 16.422 270.228 15.4766 271.68 14.7447C275.111 13.0369 279.037 12.122 283.458 12C287.616 12 291.146 12.5794 294.049 13.7383C296.953 14.8362 299.328 16.4525 301.176 18.5873C303.09 20.6611 304.475 23.2228 305.333 26.2725C306.191 29.2612 306.62 32.6769 306.62 36.5195V59.5751ZM283.458 22.7959C281.017 22.7959 279.037 23.2533 277.52 24.1682C276.068 25.0832 274.946 26.242 274.154 27.6449C273.362 28.9868 272.835 30.4506 272.571 32.0364C272.307 33.6223 272.175 35.0861 272.175 36.428C272.175 37.7698 272.307 39.2337 272.571 40.8195C272.835 42.4054 273.362 43.8997 274.154 45.3026C274.946 46.6444 276.068 47.7728 277.52 48.6877C279.037 49.6026 281.017 50.0601 283.458 50.0601C285.9 50.0601 287.847 49.6026 289.298 48.6877C290.816 47.7728 291.971 46.6444 292.763 45.3026C293.621 43.8997 294.181 42.4054 294.445 40.8195C294.709 39.2337 294.841 37.7698 294.841 36.428C294.841 34.7812 294.709 33.1648 294.445 31.579C294.247 29.9322 293.752 28.4683 292.961 27.1874C292.235 25.8456 291.113 24.7782 289.595 23.9853C288.078 23.1923 286.032 22.7959 283.458 22.7959Z" fill="#2E2B2B"/>
<path d="M427.08 43H415.9V54.6H427.08V43Z" fill="#DA0E16"/>
<path d="M177.93 60.07H184.25L207.42 0H201.1L177.93 60.07Z" fill="#2E2B2B"/>
<path d="M46.62 12.0001H38.4711C37.455 11.9954 36.4613 12.299 35.6209 12.871C34.7804 13.443 34.1326 14.2564 33.7628 15.2044L23.3502 41.655L13.491 15.285C13.1329 14.3188 12.4876 13.4858 11.6421 12.8984C10.7966 12.311 9.79161 11.9975 8.76263 12.0001H0L16.7808 55.0466C17.0186 55.6541 17.1057 56.3105 17.0343 56.9591C16.963 57.6078 16.7355 58.2295 16.3713 58.7706C16.0072 59.3118 15.5173 59.7563 14.9437 60.066C14.3701 60.3756 13.7301 60.5411 13.0785 60.5483H7.40447C6.60401 60.5483 5.83634 60.8668 5.27033 61.4337C4.70432 62.0006 4.38634 62.7695 4.38634 63.5712V72.64H15.3522C17.5226 72.632 19.6408 71.9731 21.4339 70.7482C23.227 69.5234 24.6128 67.7887 25.4126 65.7679L46.62 12.0001Z" fill="#DA0E16"/>
<path d="M74.925 11.0027C58.4909 11.1936 51.62 21.8614 51.62 35.2413C51.62 48.6213 58.4909 59.49 74.925 59.49C90.5554 59.49 98.24 48.6313 98.24 35.2413C98.24 21.8513 92.2731 10.8018 74.925 11.0027ZM74.925 49.4852C66.3061 49.4852 63.7145 43.1166 63.7145 35.2413C63.7145 27.366 66.1756 21.0076 74.925 21.0076C83.9657 21.0076 86.1355 27.3761 86.1355 35.2413C86.1355 43.1066 82.7402 49.4852 74.925 49.4852Z" fill="#DA0E16"/>
<path d="M137.074 36.5306C137.074 43.8627 133.787 49.8326 126.05 49.8126C117.882 49.8126 115.026 43.8627 115.026 36.5306V14.6145C115.024 13.8582 114.722 13.1336 114.187 12.5988C113.652 12.064 112.927 11.7624 112.17 11.7598H102.76V35.9998C102.76 36.1099 102.76 36.2201 102.76 36.3303C102.93 49.5622 110.246 60.2498 126.07 60.2498C141.433 60.2498 149.21 49.5622 149.38 36.3303V11.7598H139.91C139.153 11.7624 138.428 12.064 137.893 12.5988C137.358 13.1336 137.056 13.8582 137.054 14.6145L137.074 36.5306Z" fill="#DA0E16"/>
<path d="M176.93 11.49H167.93C164.29 11.4927 160.801 12.9485 158.228 15.5375C155.655 18.1265 154.21 21.6368 154.21 25.2969V59.98H162C163.18 59.98 164.312 59.5085 165.147 58.6693C165.981 57.8301 166.45 56.6919 166.45 55.5051V27.4891C166.45 26.5183 166.833 25.5872 167.516 24.9008C168.199 24.2143 169.125 23.8287 170.09 23.8287H172.28C173.505 23.8287 174.68 23.3392 175.547 22.468C176.413 21.5967 176.9 20.415 176.9 19.1828L176.93 11.49Z" fill="#DA0E16"/>
<path d="M408.988 41.9283C409.64 41.9269 410.267 41.6766 410.742 41.2285C411.216 40.7804 411.501 40.1683 411.539 39.517C411.59 38.7735 411.62 38.0099 411.62 37.2464C411.626 35.2012 411.472 33.1587 411.158 31.1377C409.46 20.6586 402.931 12.8319 388.305 13.0027C371.881 13.1936 365 23.8536 365 37.2464C365 50.6391 371.881 61.49 388.305 61.49C399.003 61.49 405.974 56.4062 409.309 48.8909C409.384 48.7247 409.415 48.5424 409.4 48.3609C409.385 48.1794 409.325 48.0045 409.225 47.8524C409.125 47.7003 408.988 47.5758 408.827 47.4904C408.667 47.405 408.487 47.3615 408.305 47.3638H396.803C395.844 48.7069 394.564 49.7885 393.079 50.5098C391.595 51.2311 389.953 51.5691 388.305 51.4931C381.494 51.4931 378.451 47.4743 377.476 41.9283H408.988ZM388.305 22.9996C394.804 22.9996 397.757 26.3352 398.903 31.1377H377.757C378.963 26.3352 381.996 22.9996 388.305 22.9996Z" fill="#2E2B2B"/>
</svg>
