<svg width="348" height="60" viewBox="0 0 348 60" fill="none" xmlns="http://www.w3.org/2000/svg">
<path d="M281.782 28.2283C281.782 27.0393 281.675 25.8724 281.46 24.7275C281.298 23.5385 280.895 22.4817 280.25 21.5569C279.659 20.5881 278.745 19.8175 277.508 19.245C276.271 18.6726 274.605 18.3863 272.508 18.3863C270.519 18.3863 268.906 18.7166 267.669 19.3771C266.486 20.0377 265.572 20.8744 264.927 21.8872C264.282 22.856 263.852 23.9128 263.637 25.0577C263.422 26.2027 263.314 27.2595 263.314 28.2283C263.314 29.1971 263.422 30.2539 263.637 31.3989C263.852 32.5438 264.282 33.6227 264.927 34.6355C265.572 35.6043 266.486 36.4189 267.669 37.0794C268.906 37.74 270.519 38.0702 272.508 38.0702C274.497 38.0702 276.083 37.74 277.266 37.0794C278.503 36.4189 279.444 35.6043 280.089 34.6355C280.788 33.6227 281.245 32.5438 281.46 31.3989C281.675 30.2539 281.782 29.1971 281.782 28.2283ZM272.508 10.592C275.895 10.592 278.771 10.9884 281.137 11.781C283.503 12.5736 285.438 13.7406 286.944 15.2818C288.503 16.779 289.632 18.6285 290.331 20.8303C291.03 22.9881 291.379 25.4541 291.379 28.2283V43.2885C291.379 44.6095 291.272 45.8205 291.057 46.9214C290.895 48.0663 290.654 49.1232 290.331 50.092C289.847 51.5451 289.041 52.8662 287.911 54.0552C286.836 55.2882 285.438 56.345 283.718 57.2257C281.997 58.1064 279.954 58.789 277.589 59.2734C275.223 59.7578 272.508 60 269.443 60L258.717 59.9339V52.4699H267.427C271.083 52.4699 273.879 52.1616 275.814 51.5451C277.75 50.9286 279.148 50.18 280.008 49.2993C280.922 48.4627 281.433 47.604 281.54 46.7232C281.702 45.8425 281.782 45.16 281.782 44.6756V40.3161L283.557 38.4005C282.643 40.25 281.487 41.6592 280.089 42.6279C278.691 43.5967 277.32 44.3013 275.976 44.7416C274.417 45.226 272.804 45.5123 271.137 45.6003C267.804 45.5563 264.846 44.9398 262.266 43.7508C261.137 43.2224 260.035 42.5619 258.959 41.7692C257.938 40.9326 256.997 39.8977 256.137 38.6647C255.33 37.4317 254.658 35.9565 254.12 34.2392C253.636 32.5218 253.395 30.5181 253.395 28.2283C253.395 25.9384 253.663 23.9348 254.201 22.2174C254.739 20.5001 255.438 19.0249 256.298 17.7919C257.212 16.5148 258.233 15.458 259.362 14.6213C260.545 13.7846 261.728 13.1021 262.911 12.5736C265.707 11.3406 268.906 10.6801 272.508 10.592Z" fill="white"/>
<path d="M190.789 18.2514C188.693 18.2514 187.026 18.5626 185.789 19.185C184.553 19.8073 183.612 20.6452 182.967 21.6984C182.375 22.7038 181.972 23.8529 181.757 25.1455C181.596 26.3903 181.515 27.659 181.515 28.9516C181.515 30.0049 181.623 31.1539 181.838 32.3987C182.053 33.6435 182.483 34.8164 183.128 35.9176C183.827 36.9709 184.768 37.8566 185.951 38.5747C187.187 39.2928 188.8 39.6519 190.789 39.6519C192.779 39.6519 194.365 39.2928 195.548 38.5747C196.784 37.8566 197.725 36.9709 198.37 35.9176C199.015 34.8164 199.446 33.6435 199.661 32.3987C199.876 31.1539 199.983 30.0049 199.983 28.9516C199.983 27.8984 199.876 26.7494 199.661 25.5046C199.446 24.2598 199.015 23.1108 198.37 22.0575C197.725 20.9564 196.784 20.0467 195.548 19.3286C194.365 18.6105 192.779 18.2514 190.789 18.2514ZM171.918 29.0235C171.918 26.0073 172.267 23.3262 172.966 20.9803C173.665 18.5865 174.768 16.5757 176.273 14.9479C177.832 13.2723 179.795 12.0036 182.16 11.1418C184.526 10.2322 187.402 9.77734 190.789 9.77734C194.338 9.8731 197.51 10.5912 200.306 11.9318C201.489 12.5063 202.645 13.2483 203.774 14.158C204.956 15.0676 205.978 16.2167 206.838 17.6051C207.752 18.9456 208.478 20.5494 209.016 22.4166C209.607 24.2837 209.903 26.4621 209.903 28.9516C209.903 31.4412 209.634 33.6195 209.096 35.4867C208.612 37.3539 207.94 38.9577 207.08 40.2982C206.274 41.6388 205.333 42.7638 204.257 43.6735C203.236 44.5352 202.161 45.2534 201.032 45.8279C198.451 47.1205 195.494 47.7908 192.16 47.8387C190.494 47.7429 188.881 47.4317 187.322 46.9051C185.977 46.4263 184.606 45.6603 183.209 44.6071C181.811 43.5538 180.655 42.0218 179.741 40.011L181.515 42.0936V59.1853H171.918V29.0235Z" fill="white"/>
<path d="M249.827 48.5403H240.23V43.3222L242.004 41.1604C241.09 43.2477 239.934 44.838 238.536 45.9313C237.138 47.0246 235.767 47.8197 234.423 48.3167C232.864 48.8633 231.251 49.1864 229.584 49.2858C226.251 49.2361 223.294 48.5403 220.713 47.1985C219.584 46.6022 218.482 45.8567 217.406 44.9622C216.385 44.018 215.444 42.8501 214.584 41.4586C213.777 40.0671 213.105 38.4023 212.568 36.4642C212.084 34.526 211.842 32.2648 211.842 29.6806C211.842 27.0964 212.111 24.8353 212.648 22.8971C213.186 20.959 213.885 19.2942 214.745 17.9027C215.659 16.4615 216.681 15.2688 217.81 14.3245C218.993 13.3803 220.175 12.61 221.358 12.0137C224.154 10.6222 227.353 9.87674 230.955 9.77734C234.342 9.77734 237.219 10.2495 239.584 11.1937C241.95 12.0882 243.886 13.4052 245.391 15.1445C246.95 16.8342 248.079 18.9214 248.778 21.4062C249.477 23.8413 249.827 26.6243 249.827 29.7552V48.5403ZM230.955 18.5736C228.966 18.5736 227.353 18.9463 226.116 19.6917C224.934 20.4372 224.02 21.3814 223.374 22.5244C222.729 23.6177 222.299 24.8104 222.084 26.1025C221.869 27.3946 221.761 28.5873 221.761 29.6806C221.761 30.774 221.869 31.9667 222.084 33.2588C222.299 34.5509 222.729 35.7684 223.374 36.9114C224.02 38.0047 224.934 38.9241 226.116 39.6696C227.353 40.415 228.966 40.7877 230.955 40.7877C232.944 40.7877 234.531 40.415 235.713 39.6696C236.95 38.9241 237.891 38.0047 238.536 36.9114C239.235 35.7684 239.692 34.5509 239.907 33.2588C240.122 31.9667 240.23 30.774 240.23 29.6806C240.23 28.3388 240.122 27.0219 239.907 25.7298C239.746 24.388 239.342 23.1953 238.697 22.1517C238.106 21.0584 237.192 20.1887 235.955 19.5426C234.719 18.8966 233.052 18.5736 230.955 18.5736Z" fill="white"/>
<path d="M347.974 35.0352H338.865V44.4865H347.974V35.0352Z" fill="#E01F27"/>
<path d="M144.973 48.9435H150.122L169 0H163.851L144.973 48.9435Z" fill="white"/>
<path d="M37.9848 9.77739H31.3452C30.5174 9.77358 29.7077 10.021 29.023 10.487C28.3382 10.953 27.8104 11.6158 27.5091 12.3882L19.0252 33.9395L10.9921 12.4539C10.7004 11.6666 10.1746 10.9879 9.48571 10.5093C8.79682 10.0308 7.97795 9.77528 7.13957 9.77739H0L13.6726 44.8506C13.8664 45.3456 13.9373 45.8804 13.8791 46.4089C13.821 46.9374 13.6357 47.4439 13.3389 47.8849C13.0422 48.3258 12.6431 48.688 12.1757 48.9403C11.7084 49.1926 11.1869 49.3274 10.6561 49.3333H6.03298C5.38078 49.3333 4.7553 49.5928 4.29413 50.0547C3.83296 50.5166 3.57388 51.143 3.57388 51.7963V59.1853H12.5086C14.277 59.1787 16.0029 58.6419 17.4638 57.6439C18.9248 56.646 20.0539 55.2326 20.7056 53.586L37.9848 9.77739Z" fill="#E01F27"/>
<path d="M61.0469 8.9646C47.6569 9.1201 42.0586 17.812 42.0586 28.7136C42.0586 39.6153 47.6569 48.4708 61.0469 48.4708C73.7822 48.4708 80.0434 39.6235 80.0434 28.7136C80.0434 17.8038 75.1817 8.80091 61.0469 8.9646ZM61.0469 40.3191C54.0245 40.3191 51.9129 35.1302 51.9129 28.7136C51.9129 22.297 53.9181 17.1163 61.0469 17.1163C68.413 17.1163 70.1809 22.3052 70.1809 28.7136C70.1809 35.122 67.4145 40.3191 61.0469 40.3191Z" fill="#E01F27"/>
<path d="M111.684 29.7642C111.684 35.7382 109.006 40.6023 102.703 40.586C96.0479 40.586 93.7208 35.7382 93.7208 29.7642V11.9075C93.7187 11.2913 93.4728 10.7009 93.0369 10.2652C92.6009 9.82945 92.0103 9.58369 91.3937 9.58154H83.7266V29.3317C83.7266 29.4215 83.7266 29.5112 83.7266 29.601C83.8654 40.382 89.826 49.09 102.719 49.09C115.236 49.09 121.573 40.382 121.711 29.601V9.58154H113.995C113.379 9.58369 112.788 9.82945 112.352 10.2652C111.916 10.7009 111.67 11.2913 111.668 11.9075L111.684 29.7642Z" fill="#E01F27"/>
<path d="M144.158 9.36182H136.825C133.86 9.36399 131.016 10.5502 128.92 12.6596C126.824 14.7691 125.646 17.6292 125.646 20.6113V48.8702H131.994C132.955 48.8702 133.877 48.4861 134.557 47.8023C135.237 47.1186 135.619 46.1912 135.619 45.2242V22.3975C135.619 21.6065 135.932 20.8479 136.488 20.2886C137.044 19.7293 137.799 19.4151 138.585 19.4151H140.369C141.368 19.4151 142.325 19.0163 143.031 18.3064C143.737 17.5965 144.134 16.6337 144.134 15.6297L144.158 9.36182Z" fill="#E01F27"/>
<path d="M333.233 34.1621C333.764 34.1609 334.275 33.957 334.662 33.5919C335.048 33.2268 335.28 32.7281 335.312 32.1974C335.353 31.5917 335.377 30.9695 335.377 30.3474C335.382 28.681 335.257 27.0168 335.001 25.3702C333.618 16.8321 328.298 10.4551 316.381 10.5943C302.999 10.7498 297.393 19.4353 297.393 30.3474C297.393 41.2595 302.999 50.1005 316.381 50.1005C325.097 50.1005 330.777 45.9583 333.495 39.8351C333.555 39.6996 333.581 39.5511 333.569 39.4032C333.557 39.2553 333.508 39.1129 333.426 38.9889C333.344 38.865 333.233 38.7635 333.102 38.6939C332.971 38.6244 332.825 38.5889 332.676 38.5908H323.305C322.523 39.6852 321.48 40.5664 320.271 41.154C319.061 41.7417 317.724 42.0172 316.381 41.9553C310.832 41.9553 308.352 38.6808 307.558 34.1621H333.233ZM316.381 18.7395C321.676 18.7395 324.082 21.4572 325.016 25.3702H307.787C308.769 21.4572 311.241 18.7395 316.381 18.7395Z" fill="white"/>
</svg>
