<svg width="137" height="74" viewBox="0 0 137 74" fill="none" xmlns="http://www.w3.org/2000/svg">
<path d="M92.2414 23.4005C89.6679 23.4005 87.6223 23.7824 86.1045 24.5463C84.5868 25.3102 83.4321 26.3385 82.6402 27.6312C81.9144 28.8651 81.4195 30.2754 81.1555 31.8619C80.9575 33.3896 80.8586 34.9467 80.8586 36.5333C80.8586 37.826 80.9905 39.2362 81.2545 40.764C81.5184 42.2917 82.0463 43.7313 82.8382 45.0828C83.696 46.3755 84.8508 47.4626 86.3025 48.344C87.8202 49.2253 89.7998 49.666 92.2414 49.666C94.6829 49.666 96.6295 49.2253 98.0812 48.344C99.5989 47.4626 100.754 46.3755 101.546 45.0828C102.337 43.7313 102.865 42.2917 103.129 40.764C103.393 39.2362 103.525 37.826 103.525 36.5333C103.525 35.2405 103.393 33.8303 103.129 32.3026C102.865 30.7748 102.337 29.3646 101.546 28.0719C100.754 26.7204 99.5989 25.604 98.0812 24.7226C96.6295 23.8412 94.6829 23.4005 92.2414 23.4005ZM69.0798 36.6214C69.0798 32.9195 69.5088 29.629 70.3666 26.7498C71.2244 23.8118 72.5772 21.3439 74.4248 19.346C76.3384 17.2895 78.747 15.7323 81.6504 14.6746C84.5538 13.5582 88.0842 13 92.2414 13C96.5965 13.1175 100.49 13.9989 103.921 15.6442C105.373 16.3493 106.792 17.2601 108.177 18.3765C109.629 19.4929 110.883 20.9032 111.939 22.6072C113.06 24.2525 113.951 26.2209 114.611 28.5126C115.337 30.8042 115.7 33.4778 115.7 36.5333C115.7 39.5888 115.37 42.2623 114.71 44.554C114.116 46.8456 113.291 48.814 112.236 50.4593C111.246 52.1046 110.091 53.4854 108.771 54.6019C107.517 55.6595 106.198 56.5409 104.812 57.246C101.645 58.8326 98.0152 59.6552 93.924 59.714C91.8784 59.5964 89.8988 59.2145 87.9852 58.5681C86.3355 57.9805 84.6528 57.0404 82.9372 55.7477C81.2215 54.455 79.8028 52.5746 78.681 50.1067L80.8586 52.6628V73.64H69.0798V36.6214Z" fill="#616160"/>
<path d="M39.9797 60.07H46.2997L69.4697 0H63.1497L39.9797 60.07Z" fill="#616160"/>
<path d="M136.154 41.3398H124.974V52.9398H136.154V41.3398Z" fill="#616160"/>
<path d="M46.6998 11.8999H38.5509C37.5365 11.8973 36.545 12.2019 35.7066 12.7737C34.8681 13.3455 34.2219 14.1579 33.8527 15.1042L23.4301 41.5549L13.5708 15.1848C13.2128 14.2186 12.5675 13.3857 11.722 12.7983C10.8765 12.2109 9.87143 11.8973 8.84245 11.8999H0.079834L16.8606 54.9465C17.0997 55.5572 17.1863 56.2171 17.1129 56.869C17.0396 57.5209 16.8085 58.1449 16.4397 58.687C16.0709 59.2292 15.5757 59.6729 14.9968 59.9798C14.418 60.2868 13.7731 60.4475 13.1181 60.4482H7.48429C6.68383 60.4482 5.91617 60.7667 5.35017 61.3336C4.78416 61.9005 4.46616 62.6694 4.46616 63.4711V72.5399H15.4622C17.6329 72.5332 19.7518 71.8749 21.5451 70.6499C23.3385 69.4248 24.724 67.6894 25.5226 65.6678L46.6998 11.8999Z" fill="#616160"/>
</svg>
