<svg width="137" height="74" viewBox="0 0 137 74" fill="none" xmlns="http://www.w3.org/2000/svg">
<path d="M92.1615 23.4005C89.588 23.4005 87.5424 23.7824 86.0247 24.5463C84.507 25.3102 83.3522 26.3385 82.5604 27.6312C81.8345 28.8651 81.3396 30.2754 81.0757 31.8619C80.8777 33.3896 80.7787 34.9467 80.7787 36.5333C80.7787 37.826 80.9107 39.2362 81.1746 40.764C81.4386 42.2917 81.9665 43.7313 82.7583 45.0828C83.6162 46.3755 84.771 47.4626 86.2227 48.344C87.7404 49.2253 89.72 49.666 92.1615 49.666C94.6031 49.666 96.5497 49.2253 98.0014 48.344C99.5191 47.4626 100.674 46.3755 101.466 45.0828C102.258 43.7313 102.785 42.2917 103.049 40.764C103.313 39.2362 103.445 37.826 103.445 36.5333C103.445 35.2405 103.313 33.8303 103.049 32.3026C102.785 30.7748 102.258 29.3646 101.466 28.0719C100.674 26.7204 99.5191 25.604 98.0014 24.7226C96.5497 23.8412 94.6031 23.4005 92.1615 23.4005ZM69 36.6214C69 32.9195 69.4289 29.629 70.2868 26.7498C71.1446 23.8118 72.4973 21.3439 74.345 19.346C76.2586 17.2895 78.6671 15.7323 81.5706 14.6746C84.474 13.5582 88.0043 13 92.1615 13C96.5167 13.1175 100.41 13.9989 103.841 15.6442C105.293 16.3493 106.712 17.2601 108.097 18.3765C109.549 19.4929 110.803 20.9032 111.859 22.6072C112.981 24.2525 113.871 26.2209 114.531 28.5126C115.257 30.8042 115.62 33.4778 115.62 36.5333C115.62 39.5888 115.29 42.2623 114.63 44.554C114.036 46.8456 113.211 48.814 112.156 50.4593C111.166 52.1046 110.011 53.4854 108.691 54.6019C107.438 55.6595 106.118 56.5409 104.732 57.246C101.565 58.8326 97.9354 59.6552 93.8442 59.714C91.7986 59.5964 89.819 59.2145 87.9054 58.5681C86.2557 57.9805 84.573 57.0404 82.8573 55.7477C81.1417 54.455 79.7229 52.5746 78.6011 50.1067L80.7787 52.6628V73.64H69V36.6214Z" fill="white"/>
<path d="M39.9004 60.07H46.2204L69.3904 0H63.0704L39.9004 60.07Z" fill="white"/>
<path d="M136.075 41.3398H124.895V52.9398H136.075V41.3398Z" fill="#DA0E16"/>
<path d="M46.62 11.8999H38.4711C37.4567 11.8973 36.4652 12.2019 35.6268 12.7737C34.7883 13.3455 34.142 14.1579 33.7728 15.1042L23.3502 41.5549L13.491 15.1848C13.1329 14.2186 12.4876 13.3857 11.6421 12.7983C10.7966 12.2109 9.7916 11.8973 8.76262 11.8999H0L16.7808 54.9465C17.0198 55.5572 17.1064 56.2171 17.0331 56.869C16.9597 57.5209 16.7287 58.1449 16.3599 58.687C15.9911 59.2292 15.4958 59.6729 14.917 59.9798C14.3381 60.2868 13.6932 60.4475 13.0383 60.4482H7.40446C6.604 60.4482 5.83634 60.7667 5.27033 61.3336C4.70432 61.9005 4.38633 62.6694 4.38633 63.4711V72.5399H15.3824C17.5531 72.5332 19.6719 71.8749 21.4653 70.6499C23.2586 69.4248 24.6441 67.6894 25.4428 65.6678L46.62 11.8999Z" fill="#DA0E16"/>
</svg>
