<svg width="60" height="60" viewBox="0 0 60 60" fill="none" xmlns="http://www.w3.org/2000/svg">
<path d="M30 0C13.4325 0 0 13.4325 0 30C0 46.5675 13.4325 60 30 60C46.5675 60 60 46.5675 60 30C60 13.4325 46.5675 0 30 0ZM30 55.2994C16.0256 55.2994 4.69875 43.9744 4.69875 30C4.69875 16.0256 16.0256 4.69875 30 4.69875C43.9744 4.69875 55.3013 16.0256 55.3013 30C55.3013 43.9744 43.9744 55.2994 30 55.2994Z" fill="white"/>
<path d="M30 5.63641C16.5675 5.63641 5.63623 16.5677 5.63623 30.0002C5.63623 43.4327 16.5675 54.362 30 54.362C43.4325 54.362 54.3637 43.4327 54.3637 30.0002C54.3637 16.5677 43.4325 5.63641 30 5.63641ZM36.54 29.9983H32.3419V45.2308H26.0475V30.0002H22.9031V24.7502H26.0475V21.5983C26.0475 17.3158 27.8231 14.7695 32.8669 14.7695H37.0669V20.0195H34.4419C32.4787 20.0195 32.3475 20.7545 32.3475 22.1214L32.3419 24.7502H37.0969L36.54 29.9983Z" fill="white"/>
</svg>
