<svg width="60" height="60" viewBox="0 0 60 60" fill="none" xmlns="http://www.w3.org/2000/svg">
<path d="M39.5477 19.5845H36.0752C35.8449 19.5845 35.6241 19.6759 35.4613 19.8387C35.2985 20.0015 35.207 20.2224 35.207 20.4526V23.9251C35.207 24.4051 35.5952 24.7932 36.0752 24.7932H39.5477C39.7779 24.7932 39.9987 24.7018 40.1615 24.539C40.3243 24.3762 40.4158 24.1553 40.4158 23.9251V20.4526C40.4158 20.2224 40.3243 20.0015 40.1615 19.8387C39.9987 19.6759 39.7779 19.5845 39.5477 19.5845Z" fill="white"/>
<path d="M38.6513 30.2494C38.6513 34.8656 34.787 38.6119 30.0207 38.6119C25.2563 38.6119 21.3901 34.8656 21.3901 30.2494C21.3901 29.4206 21.5176 28.6219 21.7482 27.8663L19.5845 27.3956V39.5475C19.5845 40.1569 19.8451 40.4156 20.4526 40.4156H39.5476C40.1551 40.4156 40.4157 40.1569 40.4157 39.5475V27.3956L38.2932 27.8663C38.5257 28.6219 38.6513 29.4206 38.6513 30.2494Z" fill="white"/>
<path d="M30.0206 35.3513C33.1003 35.3513 35.5968 32.932 35.5968 29.9476C35.5968 26.9632 33.1003 24.5438 30.0206 24.5438C26.9409 24.5438 24.4443 26.9632 24.4443 29.9476C24.4443 32.932 26.9409 35.3513 30.0206 35.3513Z" fill="white"/>
<path d="M30 5.63818C16.5675 5.63818 5.63623 16.5657 5.63623 30.0001C5.63623 43.4344 16.5675 54.3638 30 54.3638C43.4325 54.3638 54.3637 43.4326 54.3637 30.0001C54.3637 16.5676 43.4325 5.63818 30 5.63818ZM43.8881 40.4157C43.8952 40.8737 43.8102 41.3284 43.6382 41.7529C43.4662 42.1774 43.2107 42.563 42.8868 42.8869C42.5629 43.2108 42.1773 43.4663 41.7528 43.6383C41.3283 43.8103 40.8736 43.8953 40.4156 43.8882H19.5844C19.1263 43.8955 18.6715 43.8107 18.2468 43.6388C17.8222 43.4669 17.4365 43.2114 17.1126 42.8875C16.7886 42.5636 16.5331 42.1778 16.3612 41.7532C16.1893 41.3286 16.1045 40.8737 16.1119 40.4157V19.5844C16.1119 17.6232 17.6231 16.1119 19.5844 16.1119H40.4156C42.375 16.1119 43.8881 17.6232 43.8881 19.5844V40.4157Z" fill="white"/>
<path d="M30 0C13.4325 0 0 13.4306 0 30C0 46.5694 13.4325 60 30 60C46.5675 60 60 46.5675 60 30C60 13.4325 46.5675 0 30 0ZM30 55.3013C16.0256 55.3013 4.69875 43.9725 4.69875 30C4.69875 16.0275 16.0256 4.70062 30 4.70062C43.9744 4.70062 55.3013 16.0256 55.3013 30C55.3013 43.9744 43.9744 55.3013 30 55.3013Z" fill="white"/>
</svg>
