<svg width="60" height="60" viewBox="0 0 60 60" fill="none" xmlns="http://www.w3.org/2000/svg">
<path d="M30 0C13.4324 0 0 13.4324 0 30C0 46.5676 13.4324 60 30 60C46.5676 60 60 46.5676 60 30C60 13.4324 46.5676 0 30 0ZM30 55.2994C16.0256 55.2994 4.69876 43.9744 4.69876 30C4.69876 16.0256 16.0256 4.69876 30 4.69876C43.9744 4.69876 55.3013 16.0256 55.3013 30C55.3013 43.9744 43.9744 55.2994 30 55.2994Z" fill="white"/>
<path d="M30.0004 5.63641C16.568 5.63641 5.63672 16.5677 5.63672 30.0001C5.63672 43.4327 16.568 54.362 30.0004 54.362C43.433 54.362 54.3643 43.4327 54.3643 30.0001C54.3643 16.5677 43.433 5.63641 30.0004 5.63641Z" fill="white"/>
<g clip-path="url(#clip0)">
<path d="M22.7354 36.5382H24.4333L30.658 20.4H28.9601L22.7354 36.5382Z" fill="#1A1718"/>
<path d="M47.9841 33.3868H44.9805V36.5033H47.9841V33.3868Z" fill="#DA0E16"/>
<path d="M24.4684 23.5971H22.2895C22.0187 23.5964 21.7539 23.6776 21.53 23.83C21.3061 23.9825 21.1335 24.1991 21.0349 24.4514L18.2516 31.5036L15.6188 24.4729C15.5232 24.2153 15.3508 23.9932 15.1251 23.8366C14.8993 23.68 14.6309 23.5964 14.3561 23.5971H12.0161L16.5 35.0741C16.5641 35.2375 16.5871 35.4142 16.5672 35.5887C16.5472 35.7631 16.4848 35.93 16.3853 36.0747C16.2859 36.2195 16.1526 36.3376 15.9969 36.4189C15.8413 36.5002 15.6681 36.5421 15.4925 36.5409H13.9907C13.777 36.5409 13.572 36.6259 13.4208 36.777C13.2697 36.9281 13.1848 37.1331 13.1848 37.3469V39.7648H16.1212C16.7009 39.7634 17.2669 39.588 17.7459 39.2614C18.2249 38.9347 18.5948 38.4718 18.8078 37.9326L24.4684 23.5971Z" fill="#1A1718"/>
<path d="M42.0898 20.4324H39.7633V24.1613C38.81 23.7848 37.7893 23.6092 36.7651 23.6455C32.3698 23.6966 30.5322 26.547 30.5322 30.1282C30.5322 33.7094 32.3698 36.6136 36.7651 36.6136C40.9427 36.6136 42.9979 33.7094 42.9979 30.1282V21.3404C42.9979 21.0996 42.9023 20.8686 42.7319 20.6983C42.5616 20.528 42.3306 20.4324 42.0898 20.4324ZM36.7758 33.9431C34.4707 33.9431 33.7776 32.2372 33.7776 30.1336C33.7776 28.03 34.4358 26.324 36.7758 26.324C39.1937 26.324 39.774 28.03 39.774 30.1336C39.774 32.2372 38.8659 33.9431 36.7758 33.9431Z" fill="#DA0E16"/>
</g>
<defs>
<clipPath id="clip0">
<rect x="12" y="20.4" width="36" height="19.6119" fill="white"/>
</clipPath>
</defs>
</svg>
