<svg width="361" height="73" viewBox="0 0 361 73" fill="none" xmlns="http://www.w3.org/2000/svg">
<path d="M171.24 60.84H177.56L200.73 0.770004H194.41L171.24 60.84Z" fill="#616160"/>
<path d="M360.57 49.12H349.39V60.72H360.57V49.12Z" fill="#616160"/>
<path d="M46.34 12.68H38.24C37.2312 12.6746 36.2443 12.9744 35.4091 13.5402C34.5738 14.106 33.9292 14.9112 33.56 15.85L23.21 42.11L13.41 15.94C13.0541 14.9811 12.4126 14.1545 11.5722 13.5715C10.7318 12.9886 9.7328 12.6774 8.71 12.68H0L16.68 55.4C16.9144 56.0024 16.9993 56.6527 16.9274 57.2951C16.8555 57.9375 16.629 58.553 16.2672 59.0887C15.9055 59.6244 15.4193 60.0645 14.8503 60.3713C14.2813 60.678 13.6464 60.8423 13 60.85H7.36C6.56435 60.85 5.80129 61.1661 5.23868 61.7287C4.67607 62.2913 4.36 63.0544 4.36 63.85V72.85H15.26C17.4177 72.8434 19.5238 72.19 21.3064 70.9743C23.089 69.7586 24.4661 68.0363 25.26 66.03L46.34 12.68Z" fill="#616160"/>
<path d="M68.35 12.54C51.99 12.72 45.15 23.34 45.15 36.67C45.15 50 52 60.8 68.35 60.8C83.91 60.8 91.56 50 91.56 36.67C91.56 23.34 85.62 12.34 68.35 12.54ZM68.35 50.85C59.77 50.85 57.19 44.5 57.19 36.67C57.19 28.84 59.64 22.49 68.35 22.49C77.35 22.49 79.51 28.84 79.51 36.67C79.51 44.5 76.13 50.85 68.35 50.85Z" fill="#616160"/>
<path d="M129 37.26C129 44.59 125.72 50.55 118 50.52C109.85 50.52 107 44.59 107 37.26V15.39C107 14.6341 106.7 13.9092 106.165 13.3747C105.631 12.8403 104.906 12.54 104.15 12.54H94.76V36.74C94.76 36.85 94.76 36.95 94.76 37.06C94.93 50.28 102.23 60.94 118.02 60.94C133.35 60.94 141.11 50.28 141.28 37.06V12.54H131.83C131.074 12.54 130.349 12.8403 129.815 13.3747C129.28 13.9092 128.98 14.6341 128.98 15.39L129 37.26Z" fill="#616160"/>
<path d="M168.93 12.27H159.93C158.128 12.2713 156.344 12.6275 154.68 13.3182C153.016 14.0089 151.505 15.0206 150.231 16.2956C148.958 17.5705 147.949 19.0837 147.261 20.7488C146.572 22.4139 146.219 24.1983 146.22 26V60.5H154C155.18 60.5 156.312 60.0312 157.147 59.1966C157.981 58.3621 158.45 57.2302 158.45 56.05V28.17C158.45 27.2046 158.833 26.2788 159.516 25.5961C160.199 24.9135 161.125 24.53 162.09 24.53H164.28C165.505 24.53 166.68 24.0433 167.547 23.1768C168.413 22.3104 168.9 21.1353 168.9 19.91L168.93 12.27Z" fill="#616160"/>
<path d="M243.32 0.889999H234.66V14.8C231.112 13.3958 227.313 12.7387 223.5 12.87C207.14 13.06 200.29 23.68 200.29 37.01C200.29 50.34 207.14 61.14 223.5 61.14C239.05 61.14 246.7 50.34 246.7 37.01V4.28C246.701 3.83529 246.615 3.39469 246.446 2.98346C246.276 2.57222 246.028 2.19844 245.714 1.88351C245.4 1.56859 245.027 1.31873 244.616 1.14824C244.205 0.977753 243.765 0.889997 243.32 0.889999ZM223.5 51.19C214.92 51.19 212.34 44.84 212.34 37.01C212.34 29.18 214.79 22.83 223.5 22.83C232.5 22.83 234.66 29.18 234.66 37.01C234.66 44.84 231.27 51.19 223.5 51.19Z" fill="#616160"/>
<path d="M296.53 41.5C297.179 41.4962 297.802 41.2463 298.273 40.8008C298.745 40.3553 299.029 39.7474 299.07 39.1C299.12 38.35 299.15 37.6 299.15 36.83C299.157 34.7977 299.003 32.7681 298.69 30.76C297 20.32 290.5 12.53 275.94 12.7C259.59 12.89 252.74 23.51 252.74 36.83C252.74 50.15 259.59 61 275.94 61C286.59 61 293.53 55.93 296.85 48.46C296.924 48.2945 296.955 48.1131 296.94 47.9324C296.925 47.7518 296.866 47.5777 296.766 47.4263C296.666 47.2749 296.53 47.151 296.37 47.066C296.21 46.981 296.031 46.9377 295.85 46.94H284.4C283.443 48.2737 282.167 49.3472 280.69 50.0632C279.213 50.7792 277.58 51.1149 275.94 51.04C269.16 51.04 266.13 47.04 265.16 41.53L296.53 41.5ZM275.94 22.66C282.41 22.66 285.35 25.97 286.49 30.76H265.44C266.64 26 269.66 22.66 275.94 22.66Z" fill="#616160"/>
<path d="M333.72 16L321.67 47.67L309.92 16C309.563 15.0513 308.926 14.2333 308.094 13.6547C307.262 13.0761 306.274 12.7641 305.26 12.76H297.8L315 59.23C315.181 59.7236 315.509 60.1495 315.94 60.4501C316.371 60.7507 316.884 60.9112 317.41 60.91H325.85C326.373 60.9078 326.884 60.747 327.314 60.4489C327.744 60.1508 328.074 59.7293 328.26 59.24L345.72 12.76H338.34C337.333 12.7721 336.354 13.0879 335.529 13.666C334.705 14.2441 334.074 15.0576 333.72 16Z" fill="#616160"/>
</svg>
