<svg width="135" height="73" viewBox="0 0 135 73" fill="none" xmlns="http://www.w3.org/2000/svg">
<path d="M40.82 60.62H47.14L70.31 0.549988H63.99L40.82 60.62Z" fill="#2E2B2B"/>
<path d="M134.8 48.89H123.62V60.49H134.8V48.89Z" fill="#2E2B2B"/>
<path d="M47.26 12.45H39.16C38.1517 12.4474 37.1662 12.7497 36.3328 13.3172C35.4994 13.8847 34.857 14.6909 34.49 15.63L24.13 41.88L14.33 15.71C13.9741 14.7511 13.3326 13.9245 12.4922 13.3415C11.6518 12.7586 10.6528 12.4474 9.62997 12.45H0.919983L17.6 55.17C17.8376 55.7761 17.9237 56.431 17.8508 57.0779C17.7779 57.7248 17.5482 58.3442 17.1816 58.8822C16.8151 59.4202 16.3228 59.8606 15.7474 60.1652C15.172 60.4698 14.531 60.6293 13.88 60.63H8.27997C7.48432 60.63 6.72127 60.946 6.15866 61.5087C5.59605 62.0713 5.27997 62.8343 5.27997 63.63V72.63H16.21C18.3688 72.6226 20.4758 71.9677 22.2585 70.7501C24.0412 69.5325 25.4177 67.8082 26.21 65.8L47.26 12.45Z" fill="#2E2B2B"/>
<path d="M112.9 0.670013H104.24V14.57C100.692 13.1695 96.8925 12.5158 93.08 12.65C76.72 12.84 69.87 23.45 69.87 36.78C69.87 50.11 76.72 60.91 93.08 60.91C108.63 60.91 116.28 50.11 116.28 36.78V4.04999C116.28 3.60612 116.193 3.16661 116.023 2.75653C115.853 2.34645 115.604 1.97384 115.29 1.65997C114.976 1.34611 114.604 1.09714 114.193 0.927277C113.783 0.757416 113.344 0.670013 112.9 0.670013ZM93.08 51C84.5 51 81.92 44.65 81.92 36.82C81.92 28.99 84.37 22.64 93.08 22.64C102.08 22.64 104.24 28.99 104.24 36.82C104.24 44.65 100.85 51 93.08 51Z" fill="#2E2B2B"/>
</svg>
