<svg width="134" height="73" viewBox="0 0 134 73" fill="none" xmlns="http://www.w3.org/2000/svg">
<path d="M39.96 60.07H46.28L69.45 0H63.13L39.96 60.07Z" fill="white"/>
<path d="M133.94 48.34H122.76V59.94H133.94V48.34Z" fill="white"/>
<path d="M46.41 11.9H38.3C37.2917 11.8974 36.3062 12.1997 35.4728 12.7672C34.6394 13.3347 33.997 14.1409 33.63 15.08L23.27 41.33L13.47 15.16C13.1141 14.2011 12.4726 13.3745 11.6322 12.7915C10.7918 12.2086 9.79279 11.8974 8.76999 11.9H0.0599976L16.75 54.62C16.9886 55.2285 17.0744 55.8861 17 56.5354C16.9256 57.1847 16.6933 57.8059 16.3232 58.3447C15.9532 58.8834 15.4568 59.3233 14.8775 59.6258C14.2982 59.9283 13.6535 60.0842 13 60.08H7.41C6.61435 60.08 5.85127 60.3961 5.28867 60.9587C4.72606 61.5213 4.41 62.2843 4.41 63.08V72.08H15.34C17.498 72.0747 19.6047 71.4219 21.3876 70.206C23.1704 68.9901 24.5473 67.2671 25.34 65.26L46.41 11.9Z" fill="white"/>
<path d="M112 0.119995H103.34V14C99.7918 12.5986 95.9925 11.945 92.18 12.08C75.82 12.27 68.98 22.88 68.98 36.21C68.98 49.54 75.82 60.35 92.18 60.35C107.73 60.35 115.38 49.54 115.38 36.21V3.5C115.38 2.60356 115.024 1.74385 114.39 1.10997C113.756 0.476101 112.896 0.119995 112 0.119995ZM92.2199 50.41C83.6399 50.41 81.06 44.06 81.06 36.23C81.06 28.4 83.5099 22.05 92.2199 22.05C101.22 22.05 103.38 28.4 103.38 36.23C103.38 44.06 99.9999 50.41 92.2199 50.41Z" fill="white"/>
</svg>
