<svg width="265" height="340" viewBox="0 0 265 340" fill="none" xmlns="http://www.w3.org/2000/svg">
<path d="M59.7408 306.429C59.9356 312.755 60.0817 319.082 60.2764 325.409C40.1685 331.346 30.2849 335.239 30.6257 337.089C31.0639 339.425 47.1795 338.646 78.9724 334.753C78.2908 323.949 77.6092 313.096 76.8789 302.292C71.1824 303.655 65.486 305.017 59.7408 306.429Z" fill="#161616" stroke="#161616" stroke-width="2" stroke-miterlimit="10"/>
<path d="M123.375 181.696C120.454 182.572 121.087 182.913 105.312 195.031C88.6125 207.83 80.2869 214.254 74.4931 217.515C71.1337 219.413 68.4072 220.775 65.0478 223.89C59.4974 229.097 56.6735 235.035 54.4826 240.826C47.6663 258.881 46.6439 276.158 46.4491 283.847C46.2544 290.953 46.4005 300.978 48.1045 312.999C53.3628 314.264 57.7446 314.605 60.8606 314.653C66.2649 314.751 73.9576 314.848 81.9423 310.76C84.2793 309.543 86.0808 308.278 87.2006 307.451C85.7886 299.129 84.7175 288.665 85.2531 276.645C85.6913 266.96 87.0058 258.443 88.5638 251.387C91.1442 249.44 95.0879 246.666 100.2 243.892C106.091 240.729 111.982 238.393 128.244 233.623C147.719 227.929 148.401 228.562 151.273 226.129C158.722 219.899 164.078 207.343 159.891 196.442C154.438 182.085 135.255 178.241 123.375 181.696Z" fill="white"/>
<path d="M115.877 186.612C106.87 192.89 97.9113 199.216 88.9042 205.494C80.9194 211.091 72.3504 216.347 65.0473 222.917C58.0363 229.195 54.1413 237.03 51.6095 245.985C48.8343 255.913 47.0329 266.181 46.1078 276.45C45.0367 288.276 45.2802 300.151 46.6434 311.928C46.7408 312.853 48.2014 312.853 48.104 311.928C45.7183 291.78 46.8868 271.291 51.6582 251.63C53.9465 242.14 56.9651 232.991 64.0248 225.934C70.8411 219.121 79.4101 213.962 87.2488 208.463C97.035 201.601 106.821 194.739 116.607 187.877C117.386 187.342 116.656 186.076 115.877 186.612Z" fill="#161616"/>
<path d="M143.483 227.881C132.771 230.947 122.206 234.353 111.787 238.247C107.21 239.95 102.537 241.653 98.0573 243.649C94.357 245.303 90.9002 247.396 88.7579 250.949C88.2711 251.776 89.5369 252.506 90.0238 251.679C92.3608 247.737 96.5479 245.79 100.589 244.135C105.263 242.237 109.986 240.437 114.757 238.685C124.349 235.181 134.037 232.066 143.824 229.292C144.749 229.049 144.359 227.637 143.483 227.881Z" fill="#161616"/>
<path d="M89.3913 243.649C84.3278 264.332 83.4027 285.843 86.6648 306.867C86.8108 307.791 88.2228 307.402 88.0767 306.477C84.8633 285.697 85.7884 264.429 90.8032 244.038C90.9979 243.113 89.586 242.724 89.3913 243.649Z" fill="#161616"/>
<path d="M47.2781 311.879C47.5215 314.605 51.7573 314.167 53.6075 314.361C58.0867 314.799 62.566 315.14 67.0939 314.897C74.3971 314.507 81.5541 312.463 87.2993 307.791C88.0296 307.207 87.0071 306.185 86.2768 306.769C81.3594 310.76 75.2734 312.707 69.0414 313.291C65.8281 313.583 62.6147 313.583 59.4013 313.388C58.2328 313.339 48.8361 313.096 48.7387 311.879C48.6413 310.955 47.1807 310.955 47.2781 311.879Z" fill="#161616"/>
<path opacity="0.11" d="M143.046 211.48C136.327 208.073 128.634 216.785 109.646 225.447C94.1146 232.553 90.2683 230.801 84.1823 234.499C73.4711 240.972 63.977 259.417 70.7933 312.999C72.3026 312.999 74.0553 312.853 76.0028 312.463C81.115 311.393 84.7666 308.959 86.9575 307.256C85.2535 296.598 84.231 283.166 85.8864 267.836C86.568 261.363 87.6392 255.426 88.905 250.073C93.5303 247.396 100.736 243.551 109.987 239.95C132.432 231.141 146.356 231.677 148.596 223.793C149.764 219.364 147.038 213.475 143.046 211.48Z" fill="#666666"/>
<path opacity="0.12" d="M138.127 229.536C137.884 228.222 122.109 228.903 105.555 234.451C94.9902 237.955 89.245 239.902 84.2302 245.401C76.2454 254.064 75.8073 265.208 75.1743 280.684C74.8822 288.033 75.0769 298.642 77.6574 311.344C80.8707 310.322 84.0354 309.349 87.2488 308.327C86.0316 299.275 85.2526 288.373 85.8856 276.061C86.3724 266.863 87.4923 258.638 88.9042 251.435C90.3161 249.927 92.4584 247.786 95.477 245.693C102.05 241.07 107.844 239.902 114.66 238.052C123.472 235.57 138.371 230.801 138.127 229.536Z" fill="#666666"/>
<path d="M219.775 273.287C230.389 269.831 239.396 267.885 245.969 266.717C255.366 265.062 257.557 265.403 259.31 266.717C262.328 268.955 261.695 272.265 262.815 292.899C263.205 299.664 263.399 301.367 262.036 303.46C257.411 310.809 242.026 310.468 240.857 307.256C240.419 305.991 241.88 303.655 249.183 298.934C248.939 294.311 248.696 289.687 248.404 285.064C240.078 287.059 231.752 289.103 223.476 291.099C222.307 285.21 221.041 279.273 219.775 273.287Z" fill="#161616" stroke="#161616" stroke-width="2" stroke-miterlimit="10"/>
<path d="M134.719 189.483C131.506 197.026 133.794 205.105 134.865 208.901C136.082 213.281 137.251 213.865 139.198 219.753C141.292 226.08 141.925 230.655 142.801 236.154C144.067 244.184 145.528 253.333 147.816 262.483C150.64 273.773 152.198 279.565 156.872 285.843C158.917 288.617 163.737 294.846 172.208 298.155C173.815 298.788 175.957 299.469 181.264 300.151C187.107 300.929 196.163 302.097 208.14 300.637C218.364 299.421 226.884 296.695 233.262 294.116C234.528 289.444 234.48 285.551 234.285 283.069C233.993 279.954 233.506 274.163 229.27 269.247C228.053 267.836 226.251 265.792 223.233 264.721C219.922 263.602 216.952 264.332 211.694 265.743C205.608 267.349 203.368 269.101 199.376 268.274C197.672 267.933 196.406 267.252 195.627 266.765C194.458 264.965 192.852 262.239 191.342 258.735C187.399 249.586 187.107 242.237 186.571 234.159C185.354 215.957 184.721 206.857 181.8 196.783C178.732 186.222 177.856 180.917 173.279 177.705C168.557 174.396 163.201 174.639 159.89 174.785C151.76 175.126 139.198 179.019 134.719 189.483Z" fill="white"/>
<path d="M175.616 181.064C183.601 197.805 184.234 216.59 185.987 234.694C187.253 247.786 188.373 265.743 201.664 272.654C202.492 273.092 203.222 271.827 202.395 271.389C195.578 267.836 192.17 260.828 190.271 253.674C188.226 245.839 187.691 237.614 187.009 229.535C185.549 212.794 184.234 195.712 176.931 180.285C176.493 179.458 175.227 180.188 175.616 181.064Z" fill="#161616"/>
<path d="M136.035 214.4C144.604 233.818 142.461 255.961 150.787 275.428C154.098 283.215 159.064 290.515 166.124 295.333C174.693 301.124 185.842 302.292 195.92 302.146C208.628 301.951 221.14 299.031 232.923 294.408C233.799 294.067 233.41 292.656 232.533 292.997C222.26 297.036 211.452 299.81 200.4 300.491C189.883 301.173 177.906 300.637 168.607 295.187C152.296 285.599 147.963 265.013 145.334 247.834C143.581 236.203 142.023 224.474 137.203 213.621C136.911 212.843 135.645 213.573 136.035 214.4Z" fill="#161616"/>
<path d="M194.702 267.009C203.514 272.167 213.593 262.24 222.892 265.257C228.053 266.96 230.585 272.508 231.997 277.375C233.555 282.631 233.749 288.13 232.678 293.483C232.483 294.408 233.895 294.797 234.09 293.873C235.064 288.811 235.015 283.604 233.847 278.591C232.727 274.017 230.779 268.809 226.933 265.792C223.379 262.969 218.656 262.921 214.372 263.748C208.627 264.867 201.08 269.101 195.432 265.792C194.605 265.305 193.874 266.522 194.702 267.009Z" fill="#161616"/>
<path opacity="0.11" d="M168.41 180.431C160.23 188.461 176.735 206.127 177.027 235.813C177.271 259.027 171.769 268.663 179.17 276.45C189.783 287.595 213.786 281.171 216.415 280.441C220.603 279.273 229.561 277.569 230.291 273.043C230.73 270.075 227.614 266.717 224.449 265.062C214.809 259.952 205.802 271.243 197.33 267.544C190.952 264.721 189.54 255.377 186.862 238.003C184.671 223.744 186.035 220.727 183.454 205.056C181.555 193.522 179.121 179.117 173.278 178.289C170.941 177.9 168.799 179.993 168.41 180.431Z" fill="#666666"/>
<path opacity="0.17" d="M181.653 199.508C180.874 199.557 180.826 208.901 180.728 220.435C180.485 253.187 182.335 260.147 186.571 266.279C188.323 268.809 191.634 273.481 197.671 276.109C211.012 281.998 228.734 274.26 228.783 269.345C228.783 266.863 224.255 265.013 223.524 264.721C218.899 262.872 215.345 264.673 205.948 266.279C202.053 266.96 198.743 267.301 196.406 267.495C194.653 265.305 192.218 261.899 190.271 257.324C186.522 248.71 186.814 241.702 186.571 234.256C186.035 215.86 182.627 199.459 181.653 199.508Z" fill="#666666"/>
<path d="M0.732623 118.381C0.829998 117.262 3.41044 116.678 4.96844 116.337C11.3465 114.926 16.8482 115.996 18.3088 116.58C21.0353 117.651 23.7618 118.722 26.537 119.792C26.6831 118.965 27.1213 117.213 28.5332 115.899C31.065 113.612 34.6678 114.488 35.6416 114.78C36.9075 115.12 38.9036 115.899 42.3118 119.598C45.8173 123.394 46.3041 125.34 48.3003 127.822C52.9256 133.565 59.888 135.074 63.3935 135.804C66.4608 136.485 72.6441 137.799 79.6064 134.879C85.741 132.3 89.1979 127.774 90.7072 125.73C92.1678 123.734 92.6547 122.566 95.5759 115.899C101.516 102.321 103.415 98.1356 107.553 93.9502C109.793 91.6629 112.519 88.9862 115.343 89.6189C118.8 90.3976 120.26 95.7996 120.893 98.0869C121.575 100.618 122.451 105.436 120.455 113.855C119.774 116.775 117.437 125.389 110.669 134.879C107.845 138.87 103.901 144.272 96.8905 148.846C93.8231 150.842 88.8083 154.054 81.5539 155.027C75.1271 155.903 70.2097 154.589 66.0226 153.421C61.3973 152.156 53.7047 149.333 45.5738 142.666C40.3643 142.909 36.3719 143.25 33.5967 143.59C28.874 144.126 26.8778 144.564 24.7356 143.347C24.0053 142.909 22.9341 142.13 21.4248 142.228C20.0129 142.325 19.526 143.104 18.3088 143.347C16.9456 143.639 14.706 143.396 13.4401 141.741C12.4176 140.427 12.515 138.772 12.5637 138.237C11.736 137.507 10.4215 136.144 9.78852 134.1C9.35033 132.689 9.39902 131.521 9.39902 130.207C9.44771 128.65 9.44769 127.871 9.83719 127.238C10.957 125.292 14.1704 125.389 14.6573 125.438C13.0993 124.27 11.6873 123.637 10.8109 123.296C7.79232 122.08 6.18562 122.469 3.41044 120.96C2.29062 120.279 0.635248 119.354 0.732623 118.381Z" fill="white"/>
<path d="M115.78 88.9861C111.544 87.3801 108.379 90.9328 106.14 94.0961C102.78 98.8168 99.9075 103.878 97.4731 109.134C92.8965 119.159 89.7805 130.839 80.3838 137.555C79.6048 138.091 80.3351 139.356 81.1141 138.821C88.7094 133.321 92.507 124.707 95.9638 116.288C98.0574 111.227 100.297 106.263 103.024 101.542C104.387 99.2548 105.799 96.9675 107.357 94.8261C109.207 92.2468 111.69 89.0348 115.341 90.3975C116.267 90.7381 116.656 89.3268 115.78 88.9861Z" fill="#161616"/>
<path d="M30.6256 120.668C28.5321 121.35 27.7044 118.77 28.3373 117.359C28.8242 116.24 30.09 115.656 31.1612 115.315C33.206 114.731 35.5431 115.12 37.4419 116.045C40.6065 117.602 42.408 120.766 44.3555 123.588C47.7636 128.552 52.2915 132.543 57.7932 134.976C68.7479 139.794 81.5527 137.215 89.9756 128.747C90.6572 128.066 89.5861 127.044 88.9532 127.725C83.2081 133.565 75.0773 136.68 66.8978 135.901C58.5235 135.122 50.9283 130.256 46.0595 123.491C42.4567 118.381 37.9287 111.519 30.4796 114.001C28.386 114.682 26.3411 116.532 26.6819 118.916C26.9741 121.058 28.9216 122.761 31.0638 122.031C31.8915 121.788 31.502 120.376 30.6256 120.668Z" fill="#161616"/>
<path d="M25.5627 118.673C21.6677 116.726 17.5779 115.217 13.2447 114.779C9.44711 114.39 4.14018 114.536 1.02418 117.115C-1.7997 119.451 1.90054 120.96 3.89672 121.787C8.47335 123.685 13.6343 124.269 18.0648 126.557C18.8925 126.995 19.6228 125.729 18.7951 125.291C16.0686 123.88 13.1474 123.199 10.2261 122.371C8.6681 121.933 7.15881 121.447 5.64949 120.863C4.82181 120.571 3.16642 120.23 2.53348 119.549C1.41367 118.381 2.8256 117.651 3.89672 117.261C10.6643 114.487 18.6491 116.823 24.8811 119.938C25.6601 120.327 26.3904 119.062 25.5627 118.673Z" fill="#161616"/>
<path d="M17.7247 125.632C15.6311 124.367 13.002 124.221 10.9084 125.535C9.20436 126.557 7.79243 128.795 8.57143 130.791C9.4478 133.078 12.8559 133.321 14.8521 133.711C17.9194 134.246 20.8407 134.246 23.6645 132.835C24.4922 132.397 23.7619 131.131 22.9342 131.569C19.7695 133.175 16.264 132.591 12.9046 131.813C11.59 131.521 11.5413 131.569 10.7137 130.158C9.64254 129.282 9.69124 128.357 10.7624 127.481C11.0545 127.238 11.3466 127.043 11.6387 126.8C13.2941 125.778 15.339 125.924 16.9943 126.897C17.7733 127.384 18.5037 126.119 17.7247 125.632Z" fill="#161616"/>
<path d="M9.35039 131.618C8.37663 134.295 9.64252 137.069 12.1256 138.383C15.339 140.086 18.9905 138.821 22.0579 137.604C22.9342 137.264 22.5447 135.852 21.6683 136.193C19.6235 137.02 17.3838 137.896 15.1442 137.702C12.223 137.458 9.64252 135.074 10.7623 132.008C11.0545 131.132 9.64251 130.742 9.35039 131.618Z" fill="#161616"/>
<path d="M11.6382 137.75C10.7618 140.475 12.9528 142.763 15.4358 143.493C19.0874 144.515 22.0086 142.471 24.6378 140.183C25.3681 139.551 24.2969 138.529 23.6153 139.161C21.9599 140.573 20.2559 142.081 18.0162 142.276C15.7766 142.471 12.0764 141.108 13.0501 138.139C13.3423 137.263 11.9303 136.874 11.6382 137.75Z" fill="#161616"/>
<path d="M20.1102 128.211C21.5708 128.698 23.8104 130.012 22.6419 131.813C22.1551 132.591 23.4209 133.321 23.9078 132.543C24.5894 131.472 24.5407 130.061 23.8104 128.99C23.0801 127.822 21.7656 127.189 20.451 126.8C19.5746 126.508 19.1852 127.919 20.1102 128.211Z" fill="#161616"/>
<path d="M22.2027 133.175C23.2251 134.295 22.7869 136.047 21.3263 136.485C20.4499 136.728 20.7907 138.139 21.7158 137.896C24.2962 137.166 25.0266 134.051 23.2738 132.105C22.5922 131.472 21.5697 132.494 22.2027 133.175Z" fill="#161616"/>
<path d="M22.8838 136.777C23.8576 137.312 24.0037 138.772 23.2247 139.502C22.543 140.135 23.5655 141.205 24.2471 140.524C25.7078 139.113 25.4156 136.485 23.6142 135.511C22.8352 135.073 22.0561 136.339 22.8838 136.777Z" fill="#161616"/>
<path d="M24.5887 119.841C25.6598 120.327 26.731 120.863 27.8021 121.349C28.6298 121.739 29.4088 120.473 28.5324 120.084C27.4613 119.597 26.3902 119.062 25.319 118.575C24.4913 118.186 23.761 119.451 24.5887 119.841Z" fill="#161616"/>
<path d="M31.2092 122.079C32.2804 121.155 33.741 120.765 35.1529 121.106C36.078 121.301 36.4675 119.889 35.5424 119.695C33.5949 119.257 31.6961 119.743 30.1868 121.057C29.4565 121.69 30.4789 122.712 31.2092 122.079Z" fill="#161616"/>
<path d="M32.0378 123.832C30.6745 127.871 32.2812 132.348 35.9328 134.538C36.7605 135.025 37.4908 133.76 36.6631 133.273C33.5471 131.424 32.2812 127.579 33.4497 124.221C33.7418 123.296 32.3299 122.907 32.0378 123.832Z" fill="#161616"/>
<path d="M21.7647 142.471C24.6859 144.563 27.8506 145.001 31.3075 144.32C36.1275 143.444 40.7528 143.006 45.6703 143.541C46.5953 143.639 46.5953 142.179 45.6703 142.081C41.8726 141.643 38.075 141.692 34.2774 142.276C29.9442 142.957 26.39 143.979 22.495 141.205C21.716 140.67 20.9857 141.935 21.7647 142.471Z" fill="#161616"/>
<path d="M44.4046 142.909C51.367 146.218 57.7937 150.647 64.9995 153.372C71.621 155.854 78.8754 156.341 85.789 154.637C92.8974 152.885 98.6426 148.7 103.657 143.493C108.867 138.139 113.541 132.105 116.852 125.34C120.747 117.456 122.646 108.696 121.672 99.9362C121.574 99.0115 120.114 99.0115 120.211 99.9362C121.282 109.572 118.799 119.159 114.028 127.53C109.597 135.317 103.317 143.103 95.9647 148.359C88.5642 153.615 78.9728 155.367 70.1116 153.372C61.0558 151.328 53.4118 145.537 45.0863 141.595C44.3073 141.254 43.5769 142.519 44.4046 142.909Z" fill="#161616"/>
<path opacity="0.16" d="M117.728 94.6314C115.83 94.7287 116.073 102.807 113.785 111.081C110.425 123.053 100.785 138.772 86.617 143.59C76.5874 146.997 66.4604 144.174 50.3448 139.648C45.2326 138.237 36.2255 135.268 23.7615 134.489C13.4884 133.857 10.9566 135.317 10.8593 136.095C10.8106 136.582 11.7356 136.923 12.2712 138.48C12.7094 139.794 12.2225 140.232 12.6607 141.059C13.4397 142.568 15.7767 142.763 16.6044 142.86C18.6493 143.055 20.3046 142.325 21.181 141.887C22.1061 142.325 23.5667 142.909 25.3681 143.298C28.8736 144.028 30.8698 143.347 35.3004 142.909C39.877 142.471 42.8956 142.179 46.2064 143.103C49.3711 143.979 50.8317 145.439 53.5582 147.289C54.3859 147.824 62.1759 153.031 71.816 154.637C74.8346 155.124 81.7483 156.195 89.4409 153.226C93.8228 151.571 96.598 149.284 99.7627 146.705C101.759 145.05 110.669 137.458 117.193 123.296C120.065 117.115 122.402 111.908 121.769 105.046C121.234 100.033 119.335 94.5341 117.728 94.6314Z" fill="#666666"/>
<path opacity="0.17" d="M24.5398 138.237C26.8768 137.069 29.6032 138.042 30.6744 138.431C36.7603 140.524 37.3446 139.064 46.5465 140.427C54.1418 141.546 54.4339 143.736 64.4148 146.948C74.0063 150.063 81.7476 152.545 89.3915 150.112C100.249 146.656 105.264 135.706 105.653 136.047C106.043 136.339 101.661 146.948 91.193 151.912C81.6989 156.438 71.8153 154.151 68.9915 153.518C64.4148 152.448 60.7146 150.696 56.6735 148.749C51.9508 146.51 48.2506 144.174 45.5728 142.422C42.1646 142.276 39.4868 142.568 37.6367 142.811C33.1088 143.493 31.2099 144.515 27.5097 143.98C26.5359 143.834 22.4949 143.25 22.1541 141.4C21.9593 140.184 23.2739 138.87 24.5398 138.237Z" fill="#666666"/>
<path d="M110.668 90.8356C109.354 92.4416 107.65 95.1182 106.384 116.386C105.702 128.163 105.02 140.524 106.043 158.677C106.481 166.074 107.309 176.197 109.013 188.169C114.466 191.284 124.398 195.907 137.544 196.686C158.625 197.951 174.011 188.412 179.171 184.908C176.542 179.701 172.939 171.622 170.651 161.305C167.827 148.652 169.191 143.055 167.681 127.53C165.685 106.993 164.711 96.7242 158.479 90.4949C146.551 78.5229 120.357 78.9122 110.668 90.8356Z" fill="#3A3A3A"/>
<path opacity="0.22" d="M137.203 82.0757C140.66 87.2344 145.091 94.875 148.596 104.803C150.105 109.134 157.603 131.424 152.15 160.088C149.278 175.321 143.679 187.585 138.323 196.637C142.072 196.88 146.454 196.832 151.274 196.199C164.079 194.447 173.67 189.142 179.366 185.249C177.565 181.94 175.277 177.268 173.329 171.428C172.94 170.162 171.041 164.468 169.775 155.611C168.899 149.576 169.045 147.581 168.46 137.75C168.314 135.463 167.73 126.168 166.464 115.461C164.614 99.7904 163.202 96.3837 160.865 93.3664C157.554 89.0837 153.367 86.7964 151.517 85.7744C145.675 82.757 140.222 82.173 137.203 82.0757Z" fill="#666666"/>
<path opacity="0.22" d="M166.513 118.624C165.783 126.508 164.809 134.636 163.64 143.006C160.962 161.889 157.408 179.458 153.367 195.566C156.678 195.128 160.914 194.252 165.539 192.452C171.576 190.116 176.104 187.001 179.172 184.568C172.696 173.18 170.457 163.641 169.629 156.828C168.801 149.966 169.093 143.347 167.487 127.19C167.097 123.588 166.756 120.62 166.513 118.624Z" fill="#666666"/>
<path d="M90.8024 32.9222C89.8287 35.3068 89.8774 38.1295 89.8774 43.8235C89.8774 47.8628 89.926 53.5081 92.0196 60.1755C93.6263 65.3341 95.1843 70.4928 100.004 75.0675C101.368 76.3815 107.259 81.9781 115.584 81.9781C117.191 81.9781 118.554 81.7835 119.431 81.5888C119.82 83.0488 120.648 85.0928 122.206 87.1855C123.034 88.2561 123.861 89.0835 124.592 89.7161C125.76 89.7161 128.73 89.5214 131.797 87.5748C134.719 85.6768 136.082 83.1948 136.569 82.1241C135.692 81.2481 133.404 78.6688 133.258 74.9215C133.209 73.8995 133.355 73.0235 133.501 72.2448C135.108 70.2008 136.812 67.5241 138.273 64.2635C139.003 62.6575 139.539 61.1488 140.026 59.7375C140.756 59.9322 142.216 60.1755 143.628 59.4942C145.138 58.7155 145.673 57.2068 146.306 55.3575C147.231 52.6322 148.254 49.5661 146.988 46.8408C145.771 44.2615 143.872 44.8455 142.216 42.4608C139.685 38.9082 142.168 35.3068 141.145 31.4135C139.587 25.4275 130.921 22.8482 127.562 21.8262C113.783 17.7382 95.0869 22.3128 90.8024 32.9222Z" fill="white"/>
<path d="M89.5383 39.9302C90.7555 40.1249 91.5345 38.2268 93.4333 36.3288C95.3808 34.4308 98.6428 32.4355 104.485 31.9002C109.257 31.4135 114.028 30.8782 118.799 30.3915C120.309 30.4888 123.766 30.8782 127.222 33.2628C129.998 35.2095 131.507 37.5455 132.237 38.8108C133.746 38.8595 135.207 38.9568 136.716 39.0055C137.009 40.8062 137.349 42.6068 137.642 44.4075C137.836 44.2128 140.465 41.8768 143.192 42.7528C145.383 43.4342 146.308 45.7702 146.697 46.8408C147.915 49.8095 147.087 52.1942 147.817 52.3888C148.694 52.6808 150.398 49.4688 150.592 49.0308C151.031 48.2035 152.442 45.3322 152.832 40.8548C153.124 37.2048 153.319 34.7715 151.907 32.4842C151.42 31.7055 150.933 31.2188 150.787 30.2455C150.544 28.3962 152.004 27.3742 152.832 25.6222C153.27 24.6975 153.368 23.8215 152.102 17.1055C150.738 9.90282 150.252 8.92949 149.521 8.73483C148.547 8.54016 147.671 9.85417 146.551 10.9735C144.604 12.9688 141.244 15.1588 135.012 15.9862C135.012 13.7962 134.72 12.0442 134.477 10.7788C134.039 8.83215 133.795 8.83215 132.237 4.25749C131.361 1.67815 131.166 0.60748 130.582 0.558814C129.608 0.46148 129.267 2.94349 126.979 3.81949C125.957 4.20882 125.567 3.86816 124.204 4.06282C122.987 4.20882 121.331 4.74416 119.432 6.35016C119.432 6.35016 116.511 8.34549 111.642 10.8275C106.238 13.5528 104.437 10.5842 98.8376 13.0662C94.6504 14.9155 92.1187 18.2248 91.0476 19.7335C89.9764 21.2422 86.9578 25.6222 86.9578 31.6568C86.8605 35.1122 87.8342 39.6868 89.5383 39.9302Z" fill="#353535"/>
<path d="M89.5864 41.8767C88.7587 50.1501 90.122 58.5694 93.6275 66.1127C96.5974 72.4881 101.32 78.8147 108.136 81.3454C115.099 83.9247 123.083 82.0267 128.877 77.6467C134.768 73.1694 138.469 66.5021 140.66 59.5427C140.952 58.6667 139.54 58.2774 139.248 59.1534C137.154 65.7721 133.649 72.1474 128.05 76.4301C122.256 80.8101 114.125 82.6594 107.357 79.4474C101.271 76.5761 97.1817 70.5901 94.5525 64.6041C91.3878 57.4501 90.268 49.6147 91.047 41.8767C91.1444 40.9521 89.6838 40.9521 89.5864 41.8767Z" fill="#161616"/>
<path d="M138.663 45.527C139.344 42.5583 142.801 42.6556 144.554 44.5536C146.063 46.111 146.404 48.3983 146.453 50.491C146.55 53.995 145.284 60.4676 140.269 58.8616C139.393 58.5696 139.004 59.981 139.88 60.273C146.988 62.5603 148.546 52.681 147.67 47.9116C147.134 45.1376 145.333 42.1689 142.266 41.7796C139.929 41.4876 137.786 42.9476 137.251 45.235C137.056 46.0136 138.468 46.403 138.663 45.527Z" fill="#161616"/>
<path d="M107.649 42.4609C106.529 44.7969 105.409 47.0842 104.338 49.4202C103.802 50.6369 103.218 51.8535 103.315 53.2648C103.559 56.1362 106.091 58.0342 108.72 58.6669C109.645 58.9102 110.034 57.4989 109.109 57.2555C105.945 56.4769 103.997 53.9462 105.36 50.7342C106.431 48.2035 107.697 45.7215 108.915 43.1909C109.304 42.3635 108.038 41.6335 107.649 42.4609Z" fill="#161616"/>
<path d="M100.541 48.836C100.249 48.4954 100.054 48.0574 100.006 47.6194C99.957 47.4247 99.957 47.1814 100.006 46.9867C100.006 46.8407 100.249 46.4027 100.249 46.3054C100.152 46.3054 100.103 46.354 100.006 46.354C100.054 46.5 100.054 46.646 100.054 46.792C100.054 47.0353 100.054 47.2787 100.054 47.522C100.006 48.1547 99.8597 48.7387 99.6162 49.3227C100.006 49.2253 100.444 49.128 100.833 48.982C100.347 48.544 100.152 48.106 100.2 47.4247C100.298 46.5 98.8372 46.5 98.7398 47.4247C98.6425 48.398 99.0319 49.3713 99.8109 50.004C100.249 50.3933 100.833 50.1987 101.028 49.6634C101.466 48.544 101.661 47.2787 101.466 46.1107C101.32 45.2834 100.639 44.456 99.7623 44.8454C98.9346 45.186 98.5938 46.354 98.5938 47.23C98.5938 48.2034 98.9346 49.128 99.6162 49.858C100.152 50.588 101.174 49.5173 100.541 48.836Z" fill="#161616"/>
<path d="M119.14 48.1062C118.994 47.7169 118.897 47.3762 118.897 46.9869C118.897 46.7922 118.945 46.5975 118.994 46.4029C118.994 46.3542 119.043 46.2569 119.043 46.2082C119.14 46.0622 119.091 46.0622 118.848 46.2082C118.848 46.2569 118.945 46.5002 118.945 46.5975C118.945 46.7922 118.945 46.9869 118.897 47.1815C118.799 47.6195 118.605 48.0089 118.361 48.3495C118.751 48.3982 119.14 48.4469 119.53 48.4955C118.945 47.6682 118.994 46.6949 119.627 45.8675C119.238 45.9162 118.848 45.9649 118.458 46.0135C118.945 46.5975 118.605 47.4735 118.02 47.7655C118.361 47.9115 118.751 48.0575 119.091 48.2035C118.945 47.8142 118.848 47.4735 118.799 47.0355C118.799 46.7922 118.848 46.5489 118.848 46.3055C118.848 46.2082 118.897 46.1595 118.897 46.0622C118.751 45.8675 118.702 45.8189 118.799 45.9649C118.945 46.3542 119.043 46.6462 118.994 47.0842C118.994 47.2789 118.897 47.5709 118.897 47.7169C118.897 47.8142 118.848 47.8629 118.848 47.9602C119.189 47.9115 119.237 47.8142 119.043 47.6195C118.507 46.8409 117.241 47.5709 117.777 48.3495C118.312 49.1282 119.481 49.8095 120.114 48.6902C120.601 47.7655 120.601 46.1595 120.114 45.2835C119.578 44.3589 118.312 44.0669 117.679 45.0889C117.095 46.0622 117.241 47.5222 117.631 48.5442C117.826 48.9822 118.264 49.2255 118.702 48.9822C120.211 48.2035 120.503 46.2082 119.432 44.9429C119.091 44.5535 118.556 44.7482 118.264 45.0889C117.387 46.2569 117.339 47.9602 118.166 49.1769C118.41 49.5175 118.994 49.7122 119.335 49.3229C120.211 48.2035 121.136 45.5755 119.384 44.7482C118.605 44.4075 117.923 44.8942 117.679 45.6242C117.339 46.5489 117.339 47.5709 117.728 48.4469C118.118 49.3229 119.53 48.9822 119.14 48.1062Z" fill="#161616"/>
<path d="M103.561 39.9301C101.029 38.2754 97.7182 39.0541 96.1115 41.5361C95.6246 42.3147 96.8905 43.0447 97.3773 42.2661C98.5458 40.4167 100.98 39.9787 102.83 41.1467C103.609 41.6821 104.34 40.4167 103.561 39.9301Z" fill="#161616"/>
<path d="M116.997 40.3195C119.237 38.4215 122.694 39.0055 123.716 41.8769C124.008 42.7529 125.42 42.3635 125.128 41.4875C123.716 37.5455 119.042 36.6209 115.975 39.2975C115.293 39.8815 116.316 40.9035 116.997 40.3195Z" fill="#161616"/>
<path d="M118.799 82.1242C119.578 84.9956 121.088 87.5749 123.279 89.6189C123.96 90.2515 124.983 89.2295 124.301 88.5969C122.305 86.6989 120.893 84.4115 120.211 81.7349C119.919 80.8102 118.507 81.1996 118.799 82.1242Z" fill="#161616"/>
<path d="M132.237 73.1209C132.675 76.3816 133.795 79.3503 135.694 82.0756C136.229 82.8543 137.495 82.1243 136.96 81.3456C135.207 78.8636 134.087 76.1383 133.698 73.1209C133.6 72.2449 132.14 72.1963 132.237 73.1209Z" fill="#161616"/>
<path d="M123.375 89.8623C128.633 91.6629 134.67 87.4289 136.618 82.6109C136.959 81.7349 135.547 81.3456 135.206 82.2216C133.55 86.3096 128.146 89.9596 123.764 88.4509C122.888 88.1589 122.498 89.5703 123.375 89.8623Z" fill="#161616"/>
<path d="M119.674 82.9028C123.18 82.3188 126.296 80.6641 128.779 78.1334C129.412 77.4521 128.389 76.4301 127.756 77.1114C125.419 79.4961 122.547 80.9561 119.285 81.5401C118.36 81.6861 118.749 83.0488 119.674 82.9028Z" fill="#161616"/>
<path d="M120.502 83.8762C124.591 82.7082 129.217 79.4962 131.067 75.6028C131.456 74.7755 130.19 73.9968 129.801 74.8728C128.097 78.4255 123.861 81.4428 120.063 82.5135C119.187 82.7568 119.576 84.1195 120.502 83.8762Z" fill="#161616"/>
<path d="M89.8297 36.3287C87.0545 33.0681 88.1743 27.2281 89.5375 23.5294C91.1929 19.0034 94.455 15.5967 99.1777 14.2827C103.316 13.1147 107.747 13.2607 111.788 11.7034C116.267 9.95141 119.529 5.1334 124.69 5.47407C125.615 5.52273 125.615 4.06273 124.69 4.01407C118.799 3.62473 115.196 9.27006 109.889 10.7787C104.777 12.2874 99.0803 11.7521 94.455 14.7207C90.8034 17.0567 88.5151 20.9987 87.4927 25.1354C86.4702 29.0774 85.9347 34.0901 88.7586 37.3507C89.3915 38.0807 90.4626 37.0587 89.8297 36.3287Z" fill="#383838"/>
<path d="M105.409 30.8295C105.02 27.2768 105.799 23.7728 107.892 20.8528C110.229 17.5922 113.784 16.1322 117.289 14.4775C120.21 13.1148 122.888 11.4115 124.982 8.9295C127.026 6.5935 128.049 3.13817 130.629 1.3375C130.289 1.24017 129.948 1.14283 129.607 1.09417C132.041 6.78817 136.91 13.7475 132.528 19.7822C131.993 20.5608 133.258 21.2908 133.794 20.5122C138.517 13.9908 133.502 6.54483 130.873 0.364166C130.727 0.0234998 130.191 -0.1225 129.85 0.120833C127.026 2.01883 126.053 5.4255 123.862 7.9075C120.989 11.2655 117.24 12.7742 113.394 14.6235C107.065 17.6895 103.024 23.6268 103.851 30.8295C104.046 31.7542 105.555 31.7542 105.409 30.8295Z" fill="#383838"/>
<path d="M119.188 30.1482C122.304 24.3569 127.417 19.8309 133.649 17.6409C136.57 16.6189 139.637 16.0349 142.412 14.6236C145.09 13.3096 147.378 11.4602 149.375 9.27023C148.985 9.22156 148.596 9.17288 148.206 9.12422C150.008 12.9689 151.712 17.3002 152.052 21.5342C152.393 26.1089 149.862 29.6129 147.086 32.9709C146.502 33.7009 147.525 34.7229 148.109 33.9929C150.884 30.5862 153.61 26.9849 153.513 22.4102C153.416 17.5922 151.42 12.6769 149.423 8.39422C149.229 7.95622 148.596 7.90756 148.255 8.24822C145.723 10.9736 142.704 13.1149 139.199 14.3802C136.229 15.4509 133.113 16.0349 130.24 17.4462C124.934 20.0256 120.6 24.2596 117.825 29.4182C117.484 30.2456 118.75 30.9756 119.188 30.1482Z" fill="#383838"/>
<path d="M149.861 30.4403C153.367 37.2536 152.734 45.3323 148.254 51.513C147.719 52.2916 148.985 53.0216 149.52 52.243C154.34 45.6243 154.876 36.9616 151.127 29.7103C150.689 28.8829 149.423 29.6129 149.861 30.4403Z" fill="#383838"/>
<path opacity="0.14" d="M131.749 38.3241C131.895 40.7088 131.993 44.1641 131.749 48.3008C131.262 55.6981 130.873 62.0735 127.611 68.0595C123.521 75.5055 116.51 79.3988 111.836 81.3455C114.076 81.4915 117.678 81.3941 121.817 80.0315C125.225 78.9121 127.805 77.3061 129.461 76.0408C130.386 79.6908 131.36 83.3408 132.285 86.9908C133.745 85.2388 135.157 83.4381 136.618 81.6861C135.352 79.1555 134.086 76.5761 132.82 74.0455C133.843 72.3908 134.816 70.6388 135.79 68.7408C137.543 65.4315 138.955 62.2681 140.123 59.2508C140.756 59.4941 142.606 60.1268 144.262 59.2508C146.112 58.2775 146.55 56.0874 146.94 54.0921C147.329 51.9994 148.4 46.4028 145.089 43.9694C143.726 42.9474 141.341 42.2661 139.442 43.2881C138.419 43.8721 137.884 44.7481 137.592 45.2834C137.348 43.2881 137.153 41.2928 136.91 39.2974C135.206 39.0054 133.453 38.6648 131.749 38.3241Z" fill="#666666"/>
<path opacity="0.2" d="M120.6 30.0507C123.326 27.0821 126.588 22.8481 129.412 17.2514C131.408 13.2607 132.723 9.56205 133.551 6.44739C135.741 10.3894 135.547 13.5527 135.401 14.9154C134.573 21.1447 128.925 25.0381 125.76 27.2281C123.764 28.5907 121.914 29.4667 120.6 30.0507Z" fill="#212121"/>
<path opacity="0.16" d="M130.582 35.5015C133.357 34.5281 136.619 33.1168 140.076 31.0241C146.357 27.1795 150.593 22.6048 153.222 19.2468C153.562 21.2908 153.903 25.3301 151.712 29.0288C148.207 35.0635 139.589 37.9835 130.582 35.5015Z" fill="#212121"/>
<path opacity="0.22" d="M98.69 32.8735C98.5926 30.8295 98.7387 27.9095 99.6637 24.5515C101.855 16.8622 107.308 11.1195 108.135 11.6062C108.817 11.9955 107.162 16.5702 98.69 32.8735Z" fill="#212121"/>
<path d="M101.076 64.2148C108.331 64.5555 115.39 63.0955 121.914 59.8835C122.547 59.5915 122.012 58.6182 121.379 58.9588C115.049 62.0735 108.136 63.4849 101.125 63.1442C100.346 63.0955 100.395 64.1662 101.076 64.2148Z" fill="#161616"/>
<path d="M101.808 64.4094C102.781 66.1614 103.463 68.0594 103.852 70.0061C103.999 70.6874 105.021 70.3954 104.924 69.7141C104.534 67.6701 103.804 65.6747 102.781 63.8254C102.441 63.2414 101.467 63.8254 101.808 64.4094Z" fill="#161616"/>
<path d="M103.949 70.0549C106.87 72.8775 111.593 71.4662 114.709 69.6655C118.458 67.5729 121.184 64.0689 122.11 59.8835C122.256 59.2022 121.184 58.9102 121.038 59.5915C120.259 63.0469 118.263 65.9669 115.342 68.0109C112.567 69.9089 107.552 72.0502 104.728 69.2762C104.241 68.7895 103.462 69.5682 103.949 70.0549Z" fill="#161616"/>
<path d="M103.267 66.405C106.578 67.281 110.375 66.3076 113.54 65.3343C116.607 64.4096 119.431 62.901 121.573 60.4676C122.06 59.9323 121.281 59.1536 120.794 59.689C118.749 61.9763 116.169 63.3876 113.248 64.2636C110.278 65.1396 106.626 66.1616 103.559 65.3343C102.877 65.1883 102.585 66.259 103.267 66.405Z" fill="#161616"/>
<path d="M103.755 66.9403C104.145 67.8649 104.534 68.7896 104.924 69.7143C105.167 70.2983 106.141 69.8602 105.946 69.2762C105.605 68.4002 105.362 67.5729 105.167 66.6482C104.924 66.8916 104.729 67.0863 104.486 67.3296C105.654 67.5242 106.823 67.6216 108.04 67.6216C108.624 67.6216 108.819 66.6483 108.186 66.5509C107.066 66.3563 106.19 66.4049 105.07 66.7456C104.729 66.8429 104.534 67.2323 104.729 67.5729C105.021 68.0109 105.362 68.4976 105.654 68.9356C106.044 69.5196 106.92 69.0329 106.579 68.4003C106.433 67.9623 106.287 67.5242 106.141 67.1349C105.8 67.2809 105.459 67.4269 105.119 67.5729C105.605 68.2056 105.8 68.8869 105.605 69.6169C105.946 69.5196 106.287 69.4222 106.628 69.3249C105.946 68.2056 105.362 69.5196 105.216 69.8602C105.07 70.2982 105.654 70.7849 106.044 70.4929C110.036 67.4756 114.71 65.9669 119.433 64.5069C120.114 64.3123 119.822 63.2416 119.141 63.4363C114.321 64.8963 109.549 66.4536 105.508 69.5196C105.8 69.7142 106.044 69.9089 106.336 70.1522C106.531 69.7142 107.115 69.6169 107.212 68.9356C107.309 68.3516 107.066 67.4756 106.433 67.2809C104.68 66.6969 105.313 69.1789 105.751 69.8602C106.044 70.3469 106.725 70.1036 106.774 69.5682C106.871 68.5462 106.677 67.8162 106.141 66.9889C105.8 66.5022 104.972 66.7943 105.119 67.4269C105.313 68.2543 105.313 68.2056 105.654 68.9843C105.946 68.7896 106.287 68.5949 106.579 68.4489C106.287 68.0109 105.946 67.5242 105.654 67.0863C105.557 67.3783 105.459 67.6216 105.313 67.9136C106.141 67.5729 106.969 67.5242 107.845 67.7189C107.894 67.3782 107.942 66.9889 107.991 66.6482C106.871 66.6482 105.898 66.5996 104.729 66.4049C104.291 66.3076 103.95 66.6483 104.047 67.0863C104.242 68.0109 104.486 68.8383 104.826 69.7143C105.167 69.5683 105.508 69.4222 105.849 69.2762C105.459 68.3516 105.07 67.4269 104.68 66.5022C104.437 65.7236 103.463 66.3076 103.755 66.9403Z" fill="#161616"/>
<path d="M106.87 68.6923C108.575 67.6703 110.327 66.8916 112.226 66.2103C112.08 65.8696 111.934 65.5289 111.788 65.1883C110.084 65.9669 108.38 66.7456 106.724 67.4756C106.189 67.7189 106.578 68.6923 107.163 68.4976C111.739 66.697 116.267 64.8476 120.406 62.1223C120.113 61.9276 119.87 61.7329 119.578 61.4896C118.945 63.1929 116.121 63.3876 114.66 63.9229C113.443 64.3609 112.275 64.9449 111.058 65.3829C109.354 65.9669 107.357 65.8696 106.043 67.3296C105.556 67.8649 106.335 68.6436 106.822 68.1083C107.893 66.8916 109.889 66.9403 111.35 66.4536C112.81 65.9669 114.222 65.2369 115.732 64.7503C117.776 64.1176 119.821 64.0689 120.649 61.8303C120.795 61.3923 120.211 60.9543 119.821 61.1976C115.78 63.8256 111.301 65.6749 106.822 67.4269C106.968 67.7676 107.114 68.1083 107.26 68.4489C108.964 67.6703 110.668 66.8916 112.324 66.1616C112.908 65.9183 112.47 64.9449 111.885 65.1396C109.938 65.8209 108.088 66.6969 106.286 67.7189C105.702 68.1083 106.286 69.0816 106.87 68.6923Z" fill="#161616"/>
<path d="M120.017 63.3389C120.017 63.2902 119.968 63.2416 119.968 63.1929C119.968 63.1442 119.968 63.1929 119.968 63.2902C119.919 63.3389 119.822 63.4362 119.773 63.4849H119.822C119.676 63.4849 119.53 63.5336 119.384 63.5336C119.14 63.4849 119.14 63.0469 119.091 63.3389C119.091 63.4362 119.092 63.4849 119.14 63.5822C119.189 63.7769 119.286 63.8742 119.481 64.0202C119.724 64.2149 120.114 64.0689 120.211 63.8256C120.357 63.5336 120.26 63.2416 120.017 63.0956C120.017 63.0956 119.968 63.0956 119.968 63.0469C120.017 63.0956 120.114 63.1929 120.163 63.2415C120.211 63.3876 120.211 63.3876 120.211 63.2902C120.211 63.2416 120.211 63.1929 120.211 63.1929C120.211 63.0469 120.163 62.9009 120.114 62.8036C119.968 62.6089 119.773 62.4629 119.53 62.4629C118.897 62.4629 118.799 63.1929 118.994 63.6309C119.092 63.9229 119.335 64.1176 119.676 64.0202C119.919 63.9229 120.163 63.5822 120.017 63.3389Z" fill="#161616"/>
<path d="M120.115 58.9103C121.04 59.2997 121.819 59.9323 122.354 60.8083C122.695 61.3923 123.669 60.857 123.279 60.273C122.598 59.1536 121.624 58.3263 120.407 57.8883C119.725 57.5963 119.433 58.667 120.115 58.9103Z" fill="#161616"/>
<path d="M106.822 70.8335C110.669 68.1082 114.905 66.2102 119.481 65.1882C120.163 65.0422 119.871 63.9715 119.189 64.1175C114.466 65.1395 110.182 67.0862 106.238 69.8602C105.703 70.2982 106.238 71.2715 106.822 70.8335Z" fill="#161616"/>
<path d="M105.849 69.9576C110.62 69.7142 115.05 68.2542 118.994 65.5775C119.578 65.1882 119.043 64.2149 118.459 64.6529C114.661 67.2322 110.425 68.6922 105.849 68.8869C105.118 68.9355 105.118 70.0062 105.849 69.9576Z" fill="#161616"/>
<path d="M110.277 68.7409C112.955 68.1569 115.438 67.1349 117.775 65.6749C118.359 65.2855 117.824 64.3609 117.24 64.7502C115 66.1616 112.614 67.1349 110.034 67.7189C109.303 67.8162 109.596 68.8869 110.277 68.7409Z" fill="#161616"/>
<path d="M106.919 70.639C110.814 70.5416 114.417 69.4223 117.631 67.2323C118.215 66.843 117.679 65.8697 117.095 66.3077C114.028 68.4003 110.62 69.471 106.919 69.5683C106.238 69.5683 106.238 70.6876 106.919 70.639Z" fill="#161616"/>
<path d="M106.918 70.5414C106.87 71.3688 107.648 71.4661 108.281 71.3688C109.742 71.1741 111.154 70.8334 112.566 70.4928C113.248 70.2981 112.955 69.2761 112.274 69.4221C111.543 69.6167 110.813 69.7627 110.034 69.9087C109.693 69.9574 108.038 70.0547 107.989 70.4928C108.087 69.8601 106.967 69.8601 106.918 70.5414Z" fill="#161616"/>
<path d="M116.218 76.2354C116.705 74.8727 121.086 75.1647 124.884 75.6514C124.884 74.9214 125.03 73.8507 125.468 72.6827C125.809 71.758 126.345 70.8334 128.292 68.692C130.386 66.4047 131.457 65.2854 132.82 64.458C133.843 63.8254 135.547 62.998 137.932 62.6087C138.906 62.9494 139.928 63.29 140.902 63.582C141.194 62.6574 141.779 60.9054 142.898 57.4987C143.629 55.2114 144.067 54.0434 145.041 53.654C146.014 53.3134 147.329 53.654 148.011 54.4814C148.984 55.698 148.108 57.45 147.572 60.4187C147.28 62.122 147.524 61.83 147.426 68.2054C147.329 74.7267 147.086 74.678 147.134 77.4034C147.183 79.934 147.524 83.5354 148.692 87.8667C149.763 87.38 151.467 86.8447 153.512 86.8934C158.284 86.942 161.643 90.0567 164.126 92.4414C168.995 97.0647 171.088 102.175 172.5 105.776C175.227 112.735 175.568 118.527 175.616 121.057C175.665 124.999 175.762 128.698 173.766 132.981C173.133 134.343 171.381 137.993 167.388 140.767C165.733 141.935 162.617 144.077 158.576 143.736C156.239 143.541 154.145 142.568 151.906 140.767C144.408 134.684 140.951 123.637 139.88 119.792C137.835 112.784 135.595 102.613 135.206 89.9107C134.135 89.8621 132.869 89.6187 131.506 89.0834C126.491 86.9907 124.543 81.978 124.154 80.7127C123.131 80.7614 119.48 80.7127 117.191 78.182C116.705 77.598 116.023 76.868 116.218 76.2354Z" fill="white"/>
<path d="M122.985 79.6421C120.405 79.4474 117.435 78.4741 116.753 75.6515C116.607 75.9434 116.413 76.2355 116.266 76.5275C120.015 75.7488 123.764 76.8681 127.513 76.3328C128.438 76.1868 128.049 74.7755 127.124 74.9215C123.375 75.4568 119.626 74.3375 115.877 75.1161C115.487 75.2135 115.293 75.6515 115.39 75.9921C116.218 79.4961 119.772 80.8101 123.034 81.0534C123.959 81.1508 123.959 79.6908 122.985 79.6421Z" fill="#161616"/>
<path d="M125.76 74.4348C125.176 70.9794 130.483 71.1741 132.479 71.7094C133.404 71.9528 133.793 70.5414 132.868 70.2981C129.606 69.4221 123.569 70.0548 124.348 74.7754C124.494 75.7488 125.906 75.3594 125.76 74.4348Z" fill="#161616"/>
<path d="M127.854 71.0766C128.292 69.3733 129.217 67.816 130.873 67.0373C132.82 66.1613 134.768 67.0373 136.569 67.816C137.397 68.2053 138.176 66.94 137.3 66.5506C135.06 65.5286 132.674 64.5553 130.289 65.6746C128.244 66.5993 126.978 68.546 126.442 70.6873C126.247 71.6119 127.659 72.0013 127.854 71.0766Z" fill="#161616"/>
<path d="M132.965 65.2367C132.868 65.1393 134.523 63.7767 134.767 63.6307C135.448 63.29 136.227 63.0953 137.006 63.0953C138.905 63.0953 140.609 64.02 142.118 64.9933C142.897 65.48 143.628 64.2633 142.849 63.728C140.414 62.1707 137.444 60.954 134.572 62.122C133.355 62.6087 130.433 64.7987 131.894 66.3073C132.576 66.94 133.598 65.918 132.965 65.2367Z" fill="#161616"/>
<path d="M147.427 77.5494C148.011 73.4127 148.206 69.3247 147.913 65.1394C147.767 62.7547 148.011 60.9054 148.595 58.5694C148.887 57.3527 149.131 56.0874 148.79 54.8707C148.254 53.216 146.404 51.8534 144.651 52.7294C143.532 53.3134 143.239 54.6274 142.85 55.7467C142.12 57.8394 141.438 59.9807 140.756 62.0734C140.464 62.9494 141.876 63.3387 142.168 62.4627C142.558 61.246 142.947 60.0294 143.385 58.8614C143.629 58.1314 144.018 55.698 144.603 55.26C147.037 54.968 148.011 55.6494 147.427 57.4014C147.281 57.9854 147.134 58.5207 146.94 59.1047C146.696 60.0294 146.453 60.9054 146.355 61.83C146.161 64.166 146.599 66.5994 146.599 68.9841C146.599 71.7581 146.404 74.4834 146.015 77.2087C145.917 78.0847 147.329 78.4741 147.427 77.5494Z" fill="#161616"/>
<path d="M122.206 81.1993C124.738 81.394 125.371 84.022 126.54 85.774C127.124 86.6987 127.854 87.526 128.73 88.2074C130.435 89.57 132.431 90.3 134.622 90.4947C135.547 90.592 135.547 89.132 134.622 89.0347C130.921 88.694 128.584 86.5527 126.88 83.438C125.809 81.4913 124.543 79.934 122.206 79.788C121.233 79.6906 121.281 81.1507 122.206 81.1993Z" fill="#161616"/>
<path d="M134.377 89.862C135.887 95.0693 136.033 100.423 136.471 105.776C136.861 110.302 137.591 114.828 138.857 119.159C141.34 127.53 145.624 135.268 151.808 141.497C152.489 142.179 153.512 141.108 152.83 140.475C146.452 134.051 142.119 125.973 139.831 117.261C137.396 108.112 138.419 98.5247 135.789 89.4727C135.497 88.5967 134.085 88.986 134.377 89.862Z" fill="#161616"/>
<path d="M146.014 76.9654C146.745 85.0927 149.13 93.0254 153.123 100.131C157.018 107.041 163.006 113.027 164.37 121.106C164.516 122.031 165.928 121.641 165.781 120.717C164.564 113.368 159.55 107.771 155.703 101.639C151.078 94.1934 148.303 85.7254 147.475 77.014C147.378 76.0407 145.917 76.0407 146.014 76.9654Z" fill="#161616"/>
<path d="M149.374 88.256C156.628 85.92 163.785 91.76 167.583 97.4054C171.575 103.343 173.376 110.643 174.204 117.699C174.983 124.61 174.448 132.153 169.822 137.701C165.538 142.86 157.602 144.904 152.197 140.232C151.467 139.599 150.445 140.67 151.175 141.254C156.287 145.683 163.834 145.05 168.849 140.767C174.983 135.56 176.492 127.092 175.86 119.451C175.178 111.129 173.084 102.223 168.021 95.41C163.785 89.7647 156.385 84.46 149.033 86.796C148.108 87.1367 148.449 88.548 149.374 88.256Z" fill="#161616"/>
<path opacity="0.15" d="M146.21 55.3575C143.63 56.3308 143.824 62.9494 144.019 67.7188C144.701 81.8808 145.042 88.9861 147.817 99.8875C151.809 115.412 155.461 119.451 157.457 121.349C160.33 124.075 165.831 128.017 168.168 126.459C171.869 123.977 165.977 109.183 164.517 105.581C159.599 93.3174 158.528 89.2295 154.877 87.9641C152.686 87.2341 150.543 87.5261 149.034 87.9641C146.94 83.4868 146.6 79.8855 146.648 77.4035C146.697 75.3108 147.038 75.3108 147.184 72.1475C147.476 66.4048 146.454 66.0641 146.989 62.3168C147.525 58.6668 148.937 56.4768 147.914 55.6008C147.573 55.1141 146.746 55.1628 146.21 55.3575Z" fill="#666666"/>
<path opacity="0.15" d="M150.396 90.446C153.853 93.804 156.239 97.016 157.846 99.5467C161.789 105.63 163.445 111.081 164.029 113.173C164.857 116.142 165.246 118.721 165.49 120.619C164.662 118.089 163.104 114.293 160.377 110.059C158.186 106.652 156.775 105.484 154.924 102.418C153.415 99.8873 151.516 95.994 150.396 90.446Z" fill="#666666"/>
</svg>
