<svg width="52" height="52" viewBox="0 0 52 52" fill="none" xmlns="http://www.w3.org/2000/svg">
<path d="M43.3333 0H8.66667C6.36812 0 4.16372 0.913093 2.53841 2.53841C0.913093 4.16372 0 6.36812 0 8.66667V43.3333C0 45.6319 0.913093 47.8363 2.53841 49.4616C4.16372 51.0869 6.36812 52 8.66667 52H43.3333C45.6319 52 47.8363 51.0869 49.4616 49.4616C51.0869 47.8363 52 45.6319 52 43.3333V8.66667C52 6.36812 51.0869 4.16372 49.4616 2.53841C47.8363 0.913093 45.6319 0 43.3333 0ZM33.8289 29.7267C34.0997 29.9952 34.3146 30.3147 34.4612 30.6668C34.6079 31.0188 34.6834 31.3964 34.6834 31.7778C34.6834 32.1591 34.6079 32.5367 34.4612 32.8888C34.3146 33.2408 34.0997 33.5603 33.8289 33.8289C33.5603 34.0997 33.2408 34.3146 32.8888 34.4612C32.5367 34.6079 32.1591 34.6834 31.7778 34.6834C31.3964 34.6834 31.0188 34.6079 30.6668 34.4612C30.3147 34.3146 29.9952 34.0997 29.7267 33.8289L26 30.0733L22.2733 33.8289C22.0048 34.0997 21.6853 34.3146 21.3332 34.4612C20.9812 34.6079 20.6036 34.6834 20.2222 34.6834C19.8409 34.6834 19.4633 34.6079 19.1112 34.4612C18.7592 34.3146 18.4397 34.0997 18.1711 33.8289C17.9003 33.5603 17.6854 33.2408 17.5388 32.8888C17.3921 32.5367 17.3166 32.1591 17.3166 31.7778C17.3166 31.3964 17.3921 31.0188 17.5388 30.6668C17.6854 30.3147 17.9003 29.9952 18.1711 29.7267L21.9267 26L18.1711 22.2733C17.6271 21.7293 17.3215 20.9915 17.3215 20.2222C17.3215 19.4529 17.6271 18.7151 18.1711 18.1711C18.7151 17.6271 19.4529 17.3215 20.2222 17.3215C20.9915 17.3215 21.7293 17.6271 22.2733 18.1711L26 21.9267L29.7267 18.1711C30.2707 17.6271 31.0085 17.3215 31.7778 17.3215C32.5471 17.3215 33.2849 17.6271 33.8289 18.1711C34.3729 18.7151 34.6785 19.4529 34.6785 20.2222C34.6785 20.9915 34.3729 21.7293 33.8289 22.2733L30.0733 26L33.8289 29.7267Z" fill="#C0C0C0" fill-opacity="0.8"/>
</svg>
