<svg width="362" height="73" viewBox="0 0 362 73" fill="none" xmlns="http://www.w3.org/2000/svg">
<path d="M171.93 60.07H178.25L201.43 0H195.11L171.93 60.07Z" fill="white"/>
<path d="M361.27 48.34H350.09V59.94H361.27V48.34Z" fill="white"/>
<path d="M47 11.9H38.93C37.9217 11.8974 36.9362 12.1997 36.1028 12.7672C35.2694 13.3347 34.627 14.1409 34.26 15.08L23.9 41.33L14.11 15.16C13.7535 14.1995 13.1105 13.3717 12.2681 12.7887C11.4257 12.2056 10.4245 11.8954 9.40001 11.9H0.700012L17.38 54.62C17.6179 55.2269 17.7039 55.8827 17.6305 56.5304C17.5571 57.1781 17.3265 57.7981 16.9588 58.3364C16.5911 58.8746 16.0975 59.3148 15.5208 59.6187C14.9441 59.9226 14.3019 60.081 13.65 60.08H8.06001C7.26436 60.08 6.5013 60.3961 5.93869 60.9587C5.37608 61.5213 5.06001 62.2844 5.06001 63.08V72.08H16C18.158 72.0747 20.2647 71.4219 22.0476 70.206C23.8304 68.9901 25.2073 67.2671 26 65.26L47 11.9Z" fill="white"/>
<path d="M69.05 11.76C52.69 12 45.85 22.57 45.85 35.9C45.85 49.23 52.69 60 69.05 60C84.6 60 92.25 49.19 92.25 35.87C92.25 22.55 86.32 11.56 69.05 11.76ZM69.05 50.07C60.47 50.07 57.89 43.73 57.89 35.9C57.89 28.07 60.34 21.72 69.05 21.72C78.05 21.72 80.21 28.06 80.21 35.9C80.21 43.74 76.82 50.07 69.05 50.07Z" fill="white"/>
<path d="M129.68 36.49C129.68 43.81 126.41 49.77 118.68 49.75C110.54 49.75 107.68 43.81 107.68 36.49V14.61C107.68 13.8541 107.38 13.1292 106.845 12.5947C106.311 12.0603 105.586 11.76 104.83 11.76H95.38V36C95.38 36.1 95.38 36.21 95.38 36.32C95.54 49.54 102.84 60.2 118.63 60.2C133.96 60.2 141.73 49.54 141.89 36.32C141.89 36.21 141.89 36.1 141.89 36V11.76H132.44C131.683 11.76 130.957 12.0599 130.421 12.5941C129.885 13.1283 129.583 13.8532 129.58 14.61L129.68 36.49Z" fill="white"/>
<path d="M169.63 11.49H160.63C156.989 11.49 153.496 12.9366 150.921 15.5114C148.347 18.0863 146.9 21.5786 146.9 25.22V59.71H154.72C155.9 59.71 157.032 59.2412 157.867 58.4066C158.701 57.5721 159.17 56.4402 159.17 55.26V27.4C159.17 26.4363 159.552 25.512 160.233 24.8297C160.913 24.1473 161.836 23.7627 162.8 23.76H165C166.225 23.76 167.4 23.2733 168.267 22.4068C169.133 21.5404 169.62 20.3653 169.62 19.14L169.63 11.49Z" fill="white"/>
<path d="M244 0.119995H235.34V14C231.792 12.5986 227.992 11.945 224.18 12.08C207.82 12.27 200.98 22.88 200.98 36.21C200.98 49.54 207.82 60.35 224.18 60.35C239.74 60.35 247.39 49.54 247.39 36.21V3.5C247.387 2.60265 247.029 1.74295 246.394 1.10936C245.758 0.475778 244.897 0.119991 244 0.119995ZM224.19 50.41C215.61 50.41 213.03 44.06 213.03 36.23C213.03 28.4 215.48 22.05 224.19 22.05C233.19 22.05 235.35 28.4 235.35 36.23C235.35 44.06 232 50.41 224.19 50.41Z" fill="white"/>
<path d="M297.23 40.73C297.879 40.7262 298.502 40.4763 298.973 40.0308C299.445 39.5853 299.729 38.9774 299.77 38.33C299.82 37.58 299.84 36.83 299.84 36.06C299.852 34.0275 299.698 31.9975 299.38 29.99C297.7 19.55 291.19 11.76 276.64 11.93C260.28 12.12 253.44 22.73 253.44 36.06C253.44 49.39 260.28 60.2 276.64 60.2C287.29 60.2 294.23 55.13 297.55 47.65C297.624 47.4845 297.655 47.3031 297.64 47.1224C297.626 46.9418 297.566 46.7677 297.466 46.6163C297.366 46.4649 297.23 46.341 297.07 46.256C296.91 46.171 296.731 46.1277 296.55 46.13H285.1C284.144 47.4662 282.87 48.5422 281.392 49.26C279.915 49.9778 278.281 50.3147 276.64 50.24C269.86 50.24 266.83 46.24 265.86 40.73H297.23ZM276.64 21.88C283.11 21.88 286.04 25.2 287.18 29.99H266.18C267.34 25.2 270.35 21.88 276.64 21.88Z" fill="white"/>
<path d="M334.41 15.23L322.41 46.9L310.62 15.25C310.267 14.3057 309.637 13.4901 308.813 12.9101C307.988 12.3301 307.008 12.0129 306 12H298.5L315.69 58.45C315.874 58.9435 316.204 59.369 316.637 59.6694C317.069 59.9697 317.583 60.1304 318.11 60.13H326.55C327.079 60.1367 327.597 59.9812 328.035 59.6844C328.473 59.3876 328.81 58.9638 329 58.47L346.42 12H339C338 12.0173 337.027 12.3344 336.209 12.9102C335.391 13.4861 334.764 14.2941 334.41 15.23Z" fill="white"/>
</svg>
