<svg width="361" height="73" viewBox="0 0 361 73" fill="none" xmlns="http://www.w3.org/2000/svg">
<path d="M171.24 60.67H177.56L200.73 0.600006H194.41L171.24 60.67Z" fill="#2E2B2B"/>
<path d="M360.57 48.94H349.39V60.54H360.57V48.94Z" fill="#2E2B2B"/>
<path d="M46.34 12.5H38.24C37.23 12.4953 36.2423 12.7967 35.4069 13.3643C34.5715 13.9319 33.9276 14.7393 33.56 15.68L23.21 41.93L13.41 15.76C13.0541 14.8011 12.4126 13.9745 11.5722 13.3915C10.7318 12.8086 9.7328 12.4974 8.71 12.5H0L16.68 55.22C16.9164 55.823 17.0029 56.4743 16.932 57.1181C16.8611 57.7618 16.635 58.3788 16.273 58.9158C15.911 59.4529 15.4241 59.894 14.8539 60.2013C14.2838 60.5086 13.6476 60.6729 13 60.68H7.36C6.56435 60.68 5.80129 60.9961 5.23868 61.5587C4.67607 62.1213 4.36 62.8843 4.36 63.68V72.68H15.26C17.4174 72.672 19.5229 72.0181 21.3052 70.8026C23.0875 69.587 24.465 67.8655 25.26 65.86L46.34 12.5Z" fill="#2E2B2B"/>
<path d="M68.35 12.36C51.99 12.55 45.15 23.17 45.15 36.49C45.15 49.81 51.99 60.63 68.35 60.63C83.91 60.63 91.56 49.82 91.56 36.49C91.56 23.16 85.62 12.16 68.35 12.36ZM68.35 50.67C59.77 50.67 57.19 44.33 57.19 36.49C57.19 28.65 59.64 22.32 68.35 22.32C77.35 22.32 79.51 28.66 79.51 36.49C79.51 44.32 76.13 50.67 68.35 50.67Z" fill="#2E2B2B"/>
<path d="M129 37.09C129 44.41 125.72 50.37 118 50.35C109.85 50.35 107 44.41 107 37.09V15.21C106.997 14.4549 106.696 13.7316 106.162 13.1977C105.628 12.6638 104.905 12.3626 104.15 12.36H94.76V36.56C94.76 36.67 94.76 36.78 94.76 36.89C94.93 50.1 102.23 60.77 118.02 60.77C133.35 60.77 141.11 50.1 141.28 36.89V12.36H131.83C131.075 12.3626 130.352 12.6638 129.818 13.1977C129.284 13.7316 128.983 14.4549 128.98 15.21L129 37.09Z" fill="#2E2B2B"/>
<path d="M168.93 12.09H159.93C156.29 12.0926 152.801 13.5404 150.228 16.115C147.655 18.6895 146.21 22.1803 146.21 25.82V60.31H154C155.18 60.31 156.312 59.8412 157.147 59.0066C157.981 58.1721 158.45 57.0402 158.45 55.86V28C158.45 27.0346 158.833 26.1087 159.516 25.4261C160.199 24.7435 161.125 24.36 162.09 24.36H164.28C165.505 24.36 166.68 23.8733 167.547 23.0068C168.413 22.1404 168.9 20.9653 168.9 19.74L168.93 12.09Z" fill="#2E2B2B"/>
<path d="M243.32 0.720001H234.66V14.62C231.112 13.2194 227.312 12.5658 223.5 12.7C207.14 12.89 200.29 23.5 200.29 36.83C200.29 50.16 207.14 61 223.5 61C239.05 61 246.7 50.19 246.7 36.86V4.10001C246.7 3.20357 246.344 2.34386 245.71 1.70999C245.076 1.07612 244.216 0.720001 243.32 0.720001ZM223.5 51C214.92 51 212.34 44.65 212.34 36.82C212.34 28.99 214.79 22.64 223.5 22.64C232.5 22.64 234.66 28.99 234.66 36.82C234.66 44.65 231.27 51 223.5 51Z" fill="#DA0E16"/>
<path d="M296.53 41.32C297.179 41.3186 297.804 41.0695 298.276 40.6235C298.748 40.1775 299.032 39.5683 299.07 38.92C299.12 38.18 299.15 37.42 299.15 36.66C299.156 34.6244 299.002 32.5915 298.69 30.58C297 20.15 290.5 12.36 275.94 12.53C259.59 12.72 252.74 23.33 252.74 36.66C252.74 49.99 259.59 60.79 275.94 60.79C286.59 60.79 293.53 55.73 296.85 48.25C296.924 48.0845 296.955 47.9031 296.94 47.7224C296.925 47.5418 296.866 47.3678 296.766 47.2164C296.666 47.0649 296.53 46.941 296.37 46.856C296.21 46.771 296.031 46.7277 295.85 46.73H284.4C283.445 48.0669 282.171 49.1433 280.693 49.8613C279.215 50.5792 277.581 50.9156 275.94 50.84C269.16 50.84 266.13 46.84 265.16 41.32H296.53ZM275.94 22.48C282.41 22.48 285.35 25.8 286.49 30.58H265.44C266.64 25.8 269.66 22.48 275.94 22.48Z" fill="#DA0E16"/>
<path d="M333.72 15.83L321.67 47.5L309.92 15.85C309.563 14.9013 308.926 14.0834 308.094 13.5047C307.262 12.9261 306.274 12.614 305.26 12.61H297.8L315 59.06C315.183 59.5519 315.512 59.9763 315.943 60.2765C316.373 60.5767 316.885 60.7384 317.41 60.74H325.85C326.373 60.7377 326.884 60.577 327.314 60.2789C327.744 59.9808 328.074 59.5593 328.26 59.07L345.72 12.58H338.34C337.332 12.5929 336.352 12.9101 335.527 13.4901C334.703 14.0701 334.073 14.8857 333.72 15.83Z" fill="#DA0E16"/>
</svg>
