<svg width="361" height="73" viewBox="0 0 361 73" fill="none" xmlns="http://www.w3.org/2000/svg">
<path d="M171.24 60.62H177.56L200.73 0.549988H194.41L171.24 60.62Z" fill="#2E2B2B"/>
<path d="M360.57 48.89H349.39V60.49H360.57V48.89Z" fill="#2E2B2B"/>
<path d="M46.34 12.45H38.24C37.23 12.4454 36.2423 12.7467 35.4069 13.3143C34.5715 13.882 33.9276 14.6893 33.56 15.63L23.21 41.88L13.41 15.71C13.0541 14.7511 12.4126 13.9245 11.5722 13.3415C10.7318 12.7586 9.7328 12.4474 8.71 12.45H0L16.68 55.17C16.9164 55.773 17.0029 56.4243 16.932 57.0681C16.8611 57.7118 16.635 58.3288 16.273 58.8658C15.911 59.4029 15.4241 59.844 14.8539 60.1513C14.2838 60.4586 13.6476 60.6229 13 60.63H7.36C6.56435 60.63 5.80129 60.9461 5.23868 61.5087C4.67607 62.0713 4.36 62.8343 4.36 63.63V72.63H15.26C17.4185 72.6212 19.5249 71.9659 21.3073 70.7484C23.0898 69.531 24.4666 67.8074 25.26 65.8L46.34 12.45Z" fill="#2E2B2B"/>
<path d="M68.35 12.31C51.99 12.5 45.15 23.11 45.15 36.44C45.15 49.77 51.99 60.58 68.35 60.58C83.91 60.58 91.56 49.77 91.56 36.44C91.56 23.11 85.62 12.11 68.35 12.31ZM68.35 50.62C59.77 50.62 57.19 44.27 57.19 36.44C57.19 28.61 59.64 22.26 68.35 22.26C77.35 22.26 79.51 28.61 79.51 36.44C79.51 44.27 76.13 50.62 68.35 50.62Z" fill="#2E2B2B"/>
<path d="M129 37C129 44.33 125.72 50.29 118 50.27C109.85 50.27 107 44.33 107 37V15.16C106.997 14.4049 106.696 13.6816 106.162 13.1476C105.628 12.6137 104.905 12.3126 104.15 12.31H94.76V36.51C94.76 36.62 94.76 36.73 94.76 36.83C94.93 50.05 102.23 60.72 118.02 60.72C133.35 60.72 141.11 50.05 141.28 36.83V12.31H131.83C131.075 12.3126 130.352 12.6137 129.818 13.1476C129.284 13.6816 128.983 14.4049 128.98 15.16L129 37Z" fill="#2E2B2B"/>
<path d="M168.93 12H159.93C156.29 12.0027 152.801 13.4504 150.228 16.025C147.655 18.5996 146.21 22.0903 146.21 25.73V60.22H154C155.18 60.22 156.312 59.7512 157.147 58.9166C157.981 58.0821 158.45 56.9502 158.45 55.77V27.94C158.453 26.9763 158.837 26.0531 159.52 25.3726C160.202 24.6921 161.126 24.31 162.09 24.31H164.28C165.505 24.31 166.68 23.8233 167.547 22.9568C168.413 22.0904 168.9 20.9153 168.9 19.69L168.93 12Z" fill="#2E2B2B"/>
<path d="M243.32 0.670013H234.66V14.57C231.112 13.1695 227.312 12.5158 223.5 12.65C207.14 12.84 200.29 23.45 200.29 36.78C200.29 50.11 207.14 60.91 223.5 60.91C239.05 60.91 246.7 50.11 246.7 36.78V4.04999C246.7 3.15356 246.344 2.29385 245.71 1.65997C245.076 1.0261 244.216 0.670013 243.32 0.670013ZM223.5 51C214.92 51 212.34 44.65 212.34 36.82C212.34 28.99 214.79 22.64 223.5 22.64C232.5 22.64 234.66 28.99 234.66 36.82C234.66 44.65 231.27 51 223.5 51Z" fill="#2E2B2B"/>
<path d="M296.53 41.27C297.179 41.2686 297.804 41.0195 298.276 40.5735C298.748 40.1275 299.032 39.5183 299.07 38.87C299.12 38.13 299.15 37.37 299.15 36.61C299.157 34.5744 299.003 32.5414 298.69 30.53C297 20.1 290.5 12.31 275.94 12.47C259.59 12.66 252.74 23.28 252.74 36.61C252.74 49.94 259.59 60.74 275.94 60.74C286.59 60.74 293.53 55.67 296.85 48.2C296.924 48.0345 296.955 47.8531 296.94 47.6724C296.925 47.4918 296.866 47.3177 296.766 47.1663C296.666 47.0149 296.53 46.891 296.37 46.806C296.21 46.7211 296.031 46.6777 295.85 46.68H284.4C283.445 48.0169 282.171 49.0934 280.693 49.8113C279.215 50.5292 277.581 50.8657 275.94 50.79C269.16 50.79 266.13 46.79 265.16 41.27H296.53ZM275.94 22.43C282.41 22.43 285.35 25.75 286.49 30.53H265.44C266.64 25.75 269.66 22.43 275.94 22.43Z" fill="#2E2B2B"/>
<path d="M333.72 15.78L321.67 47.44L309.92 15.8C309.563 14.8512 308.926 14.0333 308.094 13.4547C307.262 12.8761 306.274 12.5641 305.26 12.56H297.8L315 59C315.181 59.4936 315.509 59.9195 315.94 60.2201C316.371 60.5207 316.884 60.6812 317.41 60.68H325.85C326.374 60.6806 326.886 60.5209 327.317 60.2224C327.747 59.9239 328.076 59.5009 328.26 59.01L345.72 12.53H338.34C337.332 12.5429 336.352 12.8601 335.527 13.4401C334.703 14.0201 334.073 14.8357 333.72 15.78Z" fill="#2E2B2B"/>
</svg>
