<svg width="135" height="73" viewBox="0 0 135 73" fill="none" xmlns="http://www.w3.org/2000/svg">
<path d="M40.82 60.84H47.14L70.31 0.770004H63.99L40.82 60.84Z" fill="#616160"/>
<path d="M134.8 49.12H123.62V60.72H134.8V49.12Z" fill="#616160"/>
<path d="M47.26 12.68H39.16C38.1529 12.6766 37.1682 12.9774 36.3349 13.543C35.5016 14.1087 34.8586 14.9128 34.49 15.85L24.13 42.11L14.33 15.94C13.9741 14.9811 13.3326 14.1545 12.4922 13.5715C11.6518 12.9886 10.6528 12.6774 9.62997 12.68H0.919983L17.6 55.4C17.8356 56.0056 17.92 56.6594 17.8461 57.305C17.7722 57.9505 17.5421 58.5684 17.1758 59.105C16.8095 59.6417 16.318 60.0811 15.7437 60.3851C15.1695 60.6892 14.5298 60.8487 13.88 60.85H8.27997C7.48432 60.85 6.72127 61.1661 6.15866 61.7287C5.59605 62.2913 5.27997 63.0544 5.27997 63.85V72.85H16.21C18.368 72.8447 20.4747 72.1919 22.2576 70.976C24.0404 69.7601 25.4173 68.0371 26.21 66.03L47.26 12.68Z" fill="#616160"/>
<path d="M112.9 0.889999H104.24V14.8C100.692 13.3958 96.8932 12.7387 93.08 12.87C76.72 13.06 69.87 23.68 69.87 37.01C69.87 50.34 76.72 61.14 93.08 61.14C108.63 61.14 116.28 50.34 116.28 37.01V4.28C116.281 3.83529 116.195 3.39469 116.026 2.98346C115.856 2.57222 115.608 2.19844 115.294 1.88351C114.98 1.56859 114.607 1.31873 114.196 1.14824C113.785 0.977753 113.345 0.889997 112.9 0.889999ZM93.08 51.19C84.5 51.19 81.92 44.84 81.92 37.01C81.92 29.18 84.37 22.83 93.08 22.83C102.08 22.83 104.24 29.18 104.24 37.01C104.24 44.84 100.85 51.19 93.08 51.19Z" fill="#616160"/>
</svg>
