<svg width="135" height="73" viewBox="0 0 135 73" fill="none" xmlns="http://www.w3.org/2000/svg">
<path d="M40.82 60.67H47.14L70.31 0.600006H63.99L40.82 60.67Z" fill="#2E2B2B"/>
<path d="M134.8 48.94H123.62V60.54H134.8V48.94Z" fill="#2E2B2B"/>
<path d="M47.26 12.5H39.16C38.1517 12.4974 37.1662 12.7996 36.3328 13.3671C35.4994 13.9346 34.857 14.7409 34.49 15.68L24.13 41.93L14.33 15.76C13.9741 14.8011 13.3326 13.9745 12.4922 13.3915C11.6518 12.8086 10.6528 12.4974 9.62997 12.5H0.919983L17.6 55.22C17.8376 55.8261 17.9237 56.481 17.8508 57.1279C17.7779 57.7749 17.5482 58.3942 17.1816 58.9322C16.8151 59.4702 16.3228 59.9106 15.7474 60.2152C15.172 60.5198 14.531 60.6793 13.88 60.68H8.27997C7.48432 60.68 6.72127 60.9961 6.15866 61.5587C5.59605 62.1213 5.27997 62.8843 5.27997 63.68V72.68H16.21C18.3677 72.6734 20.4738 72.02 22.2564 70.8043C24.039 69.5886 25.4161 67.8663 26.21 65.86L47.26 12.5Z" fill="#2E2B2B"/>
<path d="M112.9 0.720001H104.24V14.62C100.692 13.2194 96.8925 12.5658 93.08 12.7C76.72 12.89 69.87 23.5 69.87 36.83C69.87 50.16 76.72 61 93.08 61C108.63 61 116.28 50.19 116.28 36.86V4.10001C116.28 3.65614 116.193 3.2166 116.023 2.80652C115.853 2.39644 115.604 2.02385 115.29 1.70999C114.976 1.39613 114.604 1.14716 114.193 0.977295C113.783 0.807434 113.344 0.720001 112.9 0.720001ZM93.08 51C84.5 51 81.92 44.65 81.92 36.82C81.92 28.99 84.37 22.64 93.08 22.64C102.08 22.64 104.24 28.99 104.24 36.82C104.24 44.65 100.85 51 93.08 51Z" fill="#DA0E16"/>
</svg>
