<svg width="383" height="103" xmlns="http://www.w3.org/2000/svg" xmlns:xlink="http://www.w3.org/1999/xlink" overflow="hidden"><defs><clipPath id="clip0"><path d="M108 476 491 476 491 579 108 579Z" fill-rule="evenodd" clip-rule="evenodd"/></clipPath><clipPath id="clip1"><path d="M108 476 490 476 490 578 108 578Z" fill-rule="evenodd" clip-rule="evenodd"/></clipPath><clipPath id="clip2"><path d="M113 476 490 476 490 565 113 565Z" fill-rule="evenodd" clip-rule="evenodd"/></clipPath><clipPath id="clip3"><path d="M113 106 681 106 681 565 113 565Z" fill-rule="evenodd" clip-rule="evenodd"/></clipPath></defs><g clip-path="url(#clip0)" transform="translate(-108 -476)"><g clip-path="url(#clip1)"><g clip-path="url(#clip2)"><g clip-path="url(#clip3)"><path d="M471.77 445.622 478.089 445.622 501.256 385.559 494.937 385.559 471.77 445.622Z" fill="#2E2B2B" transform="matrix(1.00115 0 -0 1 113.839 106.694)"/><path d="M554.561 433.894 565.739 433.894 565.739 445.492 554.561 445.492Z" fill="#2E2B2B" transform="matrix(1.00115 0 -0 1 113.839 106.694)"/><path d="M478.209 397.457 470.11 397.457C468.046 397.452 466.191 398.715 465.44 400.637L455.081 426.884 445.282 400.717C444.553 398.753 442.677 397.452 440.583 397.457L431.874 397.457 448.552 440.173C449.358 442.229 448.345 444.55 446.288 445.356 445.824 445.538 445.331 445.632 444.832 445.632L439.233 445.632C437.576 445.632 436.233 446.975 436.233 448.632L436.233 457.631 447.162 457.631C451.576 457.617 455.537 454.916 457.161 450.812Z" fill="#2E2B2B" transform="matrix(1.00115 0 -0 1 113.839 106.694)"/><path d="M543.842 385.679 535.183 385.679 535.183 399.577C531.635 398.177 527.836 397.523 524.024 397.657 507.666 397.847 500.816 408.456 500.816 421.785 500.816 435.113 507.666 445.952 524.024 445.952 539.572 445.952 547.221 435.143 547.221 421.815L547.221 389.058C547.221 387.192 545.708 385.679 543.842 385.679ZM524.024 435.953C515.445 435.953 512.865 429.604 512.865 421.775 512.865 413.946 515.315 407.596 524.024 407.596 533.023 407.596 535.183 413.946 535.183 421.775 535.183 429.604 531.793 435.953 524.024 435.953Z" fill="#DA0E16" transform="matrix(1.00115 0 -0 1 113.839 106.694)"/><path d="M471.77 317.586 478.089 317.586 501.256 257.522 494.937 257.522 471.77 317.586Z" fill="#2E2B2B" transform="matrix(1.00115 0 -0 1 113.839 106.694)"/><path d="M554.561 305.857 565.739 305.857 565.739 317.456 554.561 317.456Z" fill="#2E2B2B" transform="matrix(1.00115 0 -0 1 113.839 106.694)"/><path d="M478.209 269.421 470.11 269.421C468.046 269.416 466.191 270.679 465.44 272.601L455.081 298.848 445.282 272.681C444.553 270.717 442.677 269.416 440.583 269.421L431.874 269.421 448.552 312.137C449.358 314.193 448.345 316.514 446.288 317.32 445.824 317.502 445.331 317.595 444.832 317.596L439.233 317.596C437.576 317.596 436.233 318.939 436.233 320.596L436.233 329.595 447.162 329.595C451.579 329.58 455.54 326.874 457.161 322.765Z" fill="#2E2B2B" transform="matrix(1.00115 0 -0 1 113.839 106.694)"/><path d="M543.842 257.642 535.183 257.642 535.183 271.541C531.635 270.141 527.836 269.487 524.024 269.621 507.666 269.811 500.816 280.42 500.816 293.749 500.816 307.077 507.666 317.876 524.024 317.876 539.572 317.876 547.221 307.077 547.221 293.749L547.221 261.022C547.221 259.156 545.708 257.642 543.842 257.642ZM524.024 307.967C515.445 307.967 512.865 301.618 512.865 293.789 512.865 285.959 515.315 279.61 524.024 279.61 533.023 279.61 535.183 285.959 535.183 293.789 535.183 301.618 531.793 307.967 524.024 307.967Z" fill="#2E2B2B" transform="matrix(1.00115 0 -0 1 113.839 106.694)"/><path d="M471.77 189.82 478.089 189.82 501.256 129.756 494.937 129.756 471.77 189.82Z" fill="#616160" transform="matrix(1.00115 0 -0 1 113.839 106.694)"/><path d="M554.561 178.101 565.739 178.101 565.739 189.7 554.561 189.7Z" fill="#616160" transform="matrix(1.00115 0 -0 1 113.839 106.694)"/><path d="M478.209 141.665 470.11 141.665C468.049 141.658 466.195 142.916 465.44 144.834L455.081 171.092 445.282 144.924C444.553 142.961 442.677 141.66 440.583 141.665L431.874 141.665 448.552 184.38C449.353 186.439 448.333 188.757 446.274 189.558 445.815 189.736 445.326 189.829 444.832 189.83L439.233 189.83C437.576 189.83 436.233 191.173 436.233 192.829L436.233 201.828 447.162 201.828C451.577 201.818 455.539 199.115 457.161 195.009Z" fill="#616160" transform="matrix(1.00115 0 -0 1 113.839 106.694)"/><path d="M543.842 129.876 535.183 129.876 535.183 143.785C531.635 142.381 527.837 141.724 524.024 141.855 507.666 142.045 500.816 152.664 500.816 165.992 500.816 179.321 507.666 190.12 524.024 190.12 539.572 190.12 547.221 179.321 547.221 165.992L547.221 133.266C547.227 131.399 545.718 129.882 543.852 129.876 543.848 129.876 543.845 129.876 543.842 129.876ZM524.024 180.171C515.445 180.171 512.865 173.821 512.865 165.992 512.865 158.163 515.315 151.814 524.024 151.814 533.023 151.814 535.183 158.163 535.183 165.992 535.183 173.821 531.793 180.171 524.024 180.171Z" fill="#616160" transform="matrix(1.00115 0 -0 1 113.839 106.694)"/><path d="M171.222 445.622 177.541 445.622 200.709 385.559 194.389 385.559 171.222 445.622Z" fill="#2E2B2B" transform="matrix(1.00115 0 -0 1 113.839 106.694)"/><path d="M349.353 433.894 360.531 433.894 360.531 445.492 349.353 445.492Z" fill="#2E2B2B" transform="matrix(1.00115 0 -0 1 113.839 106.694)"/><path d="M46.335 397.457 38.2359 397.457C36.1687 397.448 34.3089 398.712 33.5564 400.637L23.2075 426.884 13.4086 400.717C12.6796 398.753 10.8038 397.452 8.70907 397.457L0 397.457 16.6782 440.173C17.4846 442.229 16.4712 444.55 14.4148 445.357 13.9633 445.534 13.4835 445.627 12.9986 445.632L7.35921 445.632C5.70254 445.632 4.35953 446.975 4.35953 448.632L4.35953 457.631 15.2584 457.631C19.6717 457.615 23.6309 454.914 25.2573 450.812Z" fill="#2E2B2B" transform="matrix(1.00115 0 -0 1 113.839 106.694)"/><path d="M68.3427 397.317C51.9844 397.507 45.1452 408.126 45.1452 421.445 45.1452 434.763 51.9844 445.582 68.3427 445.582 83.901 445.582 91.5502 434.773 91.5502 421.445 91.5502 408.116 85.6108 397.117 68.3427 397.317ZM68.3427 435.623C59.7636 435.623 57.1839 429.284 57.1839 421.445 57.1839 413.606 59.6336 407.276 68.3427 407.276 77.3417 407.276 79.5015 413.616 79.5015 421.445 79.5015 429.274 76.1218 435.623 68.3427 435.623Z" fill="#2E2B2B" transform="matrix(1.00115 0 -0 1 113.839 106.694)"/><path d="M128.986 422.045C128.986 429.364 125.707 435.323 117.987 435.303 109.838 435.303 106.989 429.364 106.989 422.045L106.989 400.167 106.989 400.167C106.983 398.596 105.71 397.323 104.139 397.317L94.7499 397.317 94.7499 421.515C94.7499 421.625 94.7499 421.735 94.7499 421.845 94.9198 435.053 102.219 445.722 118.007 445.722 133.336 445.722 141.095 435.053 141.265 421.845L141.265 397.317 131.816 397.317C130.244 397.323 128.972 398.596 128.966 400.167L128.966 400.167Z" fill="#2E2B2B" transform="matrix(1.00115 0 -0 1 113.839 106.694)"/><path d="M168.912 397.047 159.913 397.047C152.335 397.053 146.194 403.198 146.194 410.776L146.194 445.262 153.984 445.262C156.441 445.262 158.433 443.27 158.433 440.813L158.433 412.956C158.433 410.946 160.063 409.316 162.073 409.316L164.262 409.316C166.814 409.316 168.882 407.248 168.882 404.697Z" fill="#2E2B2B" transform="matrix(1.00115 0 -0 1 113.839 106.694)"/><path d="M243.294 385.679 234.635 385.679 234.635 399.577C231.087 398.177 227.288 397.523 223.476 397.657 207.118 397.847 200.269 408.456 200.269 421.785 200.269 435.113 207.118 445.952 223.476 445.952 239.024 445.952 246.674 435.143 246.674 421.815L246.674 389.058C246.674 387.192 245.16 385.679 243.294 385.679ZM223.476 435.953C214.897 435.953 212.317 429.604 212.317 421.775 212.317 413.946 214.767 407.596 223.476 407.596 232.475 407.596 234.635 413.946 234.635 421.775 234.635 429.604 231.245 435.953 223.476 435.953Z" fill="#DA0E16" transform="matrix(1.00115 0 -0 1 113.839 106.694)"/><path d="M296.498 426.274C297.846 426.271 298.959 425.22 299.038 423.875 299.088 423.135 299.118 422.375 299.118 421.615 299.124 419.579 298.97 417.547 298.658 415.536 296.968 405.107 290.469 397.317 275.91 397.487 259.562 397.677 252.713 408.286 252.713 421.615 252.713 434.943 259.562 445.742 275.91 445.742 286.559 445.742 293.499 440.683 296.818 433.204 297.061 432.659 296.817 432.02 296.272 431.777 296.129 431.714 295.975 431.682 295.818 431.684L284.37 431.684C282.429 434.4 279.245 435.947 275.91 435.793 269.131 435.793 266.102 431.794 265.132 426.274ZM275.91 407.436C282.38 407.436 285.319 410.756 286.459 415.535L265.412 415.535C266.611 410.756 269.631 407.436 275.91 407.436Z" fill="#DA0E16" transform="matrix(1.00115 0 -0 1 113.839 106.694)"/><path d="M333.684 400.787 321.636 432.454 309.887 400.807C309.156 398.865 307.302 397.576 305.227 397.567L297.768 397.567 314.966 444.012C315.341 445.02 316.301 445.689 317.376 445.692L325.815 445.692C326.886 445.688 327.844 445.024 328.225 444.022L345.683 397.537 338.304 397.537C336.241 397.564 334.406 398.855 333.684 400.787Z" fill="#DA0E16" transform="matrix(1.00115 0 -0 1 113.839 106.694)"/><path d="M171.222 317.586 177.541 317.586 200.709 257.522 194.389 257.522 171.222 317.586Z" fill="#2E2B2B" transform="matrix(1.00115 0 -0 1 113.839 106.694)"/><path d="M349.353 305.857 360.531 305.857 360.531 317.456 349.353 317.456Z" fill="#2E2B2B" transform="matrix(1.00115 0 -0 1 113.839 106.694)"/><path d="M46.335 269.421 38.2359 269.421C36.1687 269.412 34.3089 270.675 33.5564 272.601L23.2075 298.848 13.4086 272.681C12.6796 270.717 10.8038 269.416 8.70907 269.421L0 269.421 16.6782 312.137C17.4846 314.193 16.4712 316.514 14.4148 317.32 13.9633 317.497 13.4835 317.591 12.9986 317.596L7.35921 317.596C5.70254 317.596 4.35953 318.939 4.35953 320.596L4.35953 329.595 15.2584 329.595C19.6742 329.577 23.6341 326.872 25.2573 322.765Z" fill="#2E2B2B" transform="matrix(1.00115 0 -0 1 113.839 106.694)"/><path d="M68.3427 269.281C51.9844 269.471 45.1452 280.08 45.1452 293.409 45.1452 306.737 51.9844 317.546 68.3427 317.546 83.901 317.546 91.5502 306.737 91.5502 293.409 91.5502 280.08 85.6108 269.081 68.3427 269.281ZM68.3427 307.587C59.7636 307.587 57.1839 301.238 57.1839 293.409 57.1839 285.579 59.6336 279.23 68.3427 279.23 77.3417 279.23 79.5015 285.579 79.5015 293.409 79.5015 301.238 76.1218 307.587 68.3427 307.587Z" fill="#2E2B2B" transform="matrix(1.00115 0 -0 1 113.839 106.694)"/><path d="M128.986 293.969C128.986 301.298 125.707 307.257 117.987 307.237 109.838 307.237 106.989 301.298 106.989 293.969L106.989 272.131 106.989 272.131C106.983 270.559 105.71 269.287 104.139 269.281L94.7499 269.281 94.7499 293.479C94.7499 293.589 94.7499 293.699 94.7499 293.799 94.9198 307.017 102.219 317.686 118.007 317.686 133.336 317.686 141.095 307.017 141.265 293.799L141.265 269.281 131.816 269.281C130.244 269.287 128.972 270.559 128.966 272.131L128.966 272.131Z" fill="#2E2B2B" transform="matrix(1.00115 0 -0 1 113.839 106.694)"/><path d="M168.912 268.971 159.913 268.971C152.335 268.977 146.194 275.122 146.194 282.7L146.194 317.186 153.984 317.186C156.441 317.186 158.433 315.194 158.433 312.737L158.433 284.909C158.439 282.903 160.066 281.28 162.073 281.28L164.262 281.28C166.814 281.28 168.882 279.212 168.882 276.66Z" fill="#2E2B2B" transform="matrix(1.00115 0 -0 1 113.839 106.694)"/><path d="M243.294 257.642 234.635 257.642 234.635 271.541C231.087 270.141 227.288 269.487 223.476 269.621 207.118 269.811 200.269 280.42 200.269 293.749 200.269 307.077 207.118 317.876 223.476 317.876 239.024 317.876 246.674 307.077 246.674 293.749L246.674 261.022C246.674 259.156 245.16 257.642 243.294 257.642ZM223.476 307.967C214.897 307.967 212.317 301.618 212.317 293.789 212.317 285.959 214.767 279.61 223.476 279.61 232.475 279.61 234.635 285.959 234.635 293.789 234.635 301.618 231.245 307.967 223.476 307.967Z" fill="#2E2B2B" transform="matrix(1.00115 0 -0 1 113.839 106.694)"/><path d="M296.498 298.238C297.846 298.235 298.959 297.184 299.038 295.838 299.088 295.098 299.118 294.338 299.118 293.579 299.125 291.543 298.971 289.51 298.658 287.499 296.968 277.07 290.469 269.281 275.91 269.441 259.562 269.631 252.713 280.25 252.713 293.579 252.713 306.907 259.562 317.706 275.91 317.706 286.559 317.706 293.499 312.637 296.818 305.167 297.061 304.623 296.817 303.984 296.272 303.741 296.129 303.677 295.975 303.646 295.818 303.647L284.37 303.647C282.429 306.363 279.245 307.911 275.91 307.757 269.131 307.757 266.102 303.757 265.132 298.238ZM275.91 279.4C282.38 279.4 285.319 282.72 286.459 287.499L265.412 287.499C266.611 282.72 269.631 279.4 275.91 279.4Z" fill="#2E2B2B" transform="matrix(1.00115 0 -0 1 113.839 106.694)"/><path d="M333.684 272.751 321.636 304.407 309.887 272.771C309.156 270.829 307.302 269.539 305.227 269.531L297.768 269.531 314.966 315.966C315.336 316.977 316.299 317.649 317.376 317.646L325.815 317.646C326.888 317.647 327.849 316.981 328.225 315.976L345.683 269.501 338.304 269.501C336.241 269.527 334.406 270.818 333.684 272.751Z" fill="#2E2B2B" transform="matrix(1.00115 0 -0 1 113.839 106.694)"/><path d="M171.222 189.82 177.541 189.82 200.709 129.756 194.389 129.756 171.222 189.82Z" fill="#616160" transform="matrix(1.00115 0 -0 1 113.839 106.694)"/><path d="M349.353 178.101 360.531 178.101 360.531 189.7 349.353 189.7Z" fill="#616160" transform="matrix(1.00115 0 -0 1 113.839 106.694)"/><path d="M46.335 141.665 38.2359 141.665C36.1712 141.654 34.3121 142.913 33.5564 144.834L23.2075 171.092 13.4086 144.924C12.6796 142.961 10.8038 141.66 8.70907 141.665L0 141.665 16.6782 184.38C17.4791 186.439 16.4595 188.757 14.4009 189.558 13.9536 189.732 13.4786 189.824 12.9986 189.83L7.35921 189.83C5.70254 189.83 4.35953 191.173 4.35953 192.829L4.35953 201.828 15.2584 201.828C19.6725 201.815 23.6332 199.114 25.2573 195.009Z" fill="#616160" transform="matrix(1.00115 0 -0 1 113.839 106.694)"/><path d="M68.3427 141.525C51.9844 141.705 45.1452 152.324 45.1452 165.652 45.1452 178.981 51.9944 189.78 68.3427 189.78 83.901 189.78 91.5502 178.981 91.5502 165.652 91.5502 152.324 85.6108 141.325 68.3427 141.525ZM68.3427 179.831C59.7636 179.831 57.1839 173.481 57.1839 165.652 57.1839 157.823 59.6336 151.474 68.3427 151.474 77.3417 151.474 79.5015 157.823 79.5015 165.652 79.5015 173.481 76.1218 179.831 68.3427 179.831Z" fill="#616160" transform="matrix(1.00115 0 -0 1 113.839 106.694)"/><path d="M128.986 166.242C128.986 173.571 125.707 179.531 117.987 179.501 109.838 179.501 106.989 173.571 106.989 166.242L106.989 144.375 106.989 144.375C106.989 142.801 105.713 141.525 104.139 141.525L94.7499 141.525 94.7499 165.722C94.7499 165.832 94.7499 165.932 94.7499 166.042 94.9198 179.261 102.219 189.92 118.007 189.92 133.336 189.92 141.095 179.261 141.265 166.042L141.265 141.525 131.816 141.525C130.242 141.525 128.966 142.801 128.966 144.375L128.966 144.375Z" fill="#616160" transform="matrix(1.00115 0 -0 1 113.839 106.694)"/><path d="M168.912 141.255 159.913 141.255C152.336 141.26 146.199 147.407 146.204 154.983L146.204 189.48 153.984 189.48C156.441 189.48 158.433 187.488 158.433 185.03L158.433 157.153C158.433 155.143 160.063 153.514 162.073 153.514L164.262 153.514C166.814 153.514 168.882 151.445 168.882 148.894Z" fill="#616160" transform="matrix(1.00115 0 -0 1 113.839 106.694)"/><path d="M243.294 129.876 234.635 129.876 234.635 143.785C231.088 142.381 227.289 141.724 223.476 141.855 207.118 142.045 200.269 152.664 200.269 165.992 200.269 179.321 207.118 190.12 223.476 190.12 239.024 190.12 246.674 179.321 246.674 165.992L246.674 133.266C246.679 131.399 245.17 129.882 243.304 129.876 243.301 129.876 243.297 129.876 243.294 129.876ZM223.476 180.171C214.897 180.171 212.317 173.821 212.317 165.992 212.317 158.163 214.767 151.814 223.476 151.814 232.475 151.814 234.635 158.163 234.635 165.992 234.635 173.821 231.245 180.171 223.476 180.171Z" fill="#616160" transform="matrix(1.00115 0 -0 1 113.839 106.694)"/><path d="M296.498 170.482C297.844 170.474 298.954 169.425 299.038 168.082 299.088 167.332 299.118 166.582 299.118 165.812 299.125 163.78 298.971 161.751 298.658 159.743 296.968 149.304 290.469 141.515 275.91 141.685 259.562 141.875 252.713 152.494 252.713 165.812 252.713 179.131 259.562 189.98 275.91 189.98 286.559 189.98 293.499 184.91 296.818 177.441 297.061 176.896 296.817 176.258 296.272 176.015 296.129 175.951 295.975 175.919 295.818 175.921L284.37 175.921C282.425 178.63 279.242 180.173 275.91 180.021 269.131 180.021 266.102 176.021 265.132 170.512ZM275.91 151.644C282.38 151.644 285.319 154.953 286.459 159.743L265.412 159.743C266.611 154.983 269.631 151.644 275.91 151.644Z" fill="#616160" transform="matrix(1.00115 0 -0 1 113.839 106.694)"/><path d="M333.684 144.984 321.636 176.651 309.887 144.984C309.156 143.042 307.302 141.753 305.227 141.745L297.768 141.745 314.966 188.21C315.336 189.221 316.299 189.892 317.376 189.89L325.815 189.89C326.886 189.885 327.844 189.221 328.225 188.22L345.683 141.745 338.304 141.745C336.243 141.77 334.409 143.056 333.684 144.984Z" fill="#616160" transform="matrix(1.00115 0 -0 1 113.839 106.694)"/><path d="M176.911 60.0636 183.23 60.0636 206.408 0 200.089 0 176.911 60.0636Z" fill="#FFFFFF" transform="matrix(1.00115 0 -0 1 113.839 106.694)"/><path d="M355.052 48.3348 366.231 48.3348 366.231 59.9336 355.052 59.9336Z" fill="#FFFFFF" transform="matrix(1.00115 0 -0 1 113.839 106.694)"/><path d="M51.9944 11.8987 43.9253 11.8987C41.8617 11.8934 40.0069 13.1564 39.2558 15.0784L28.8969 41.3256 19.108 15.1584C18.3777 13.1912 16.4968 11.8893 14.3985 11.8987L5.69939 11.8987 22.3776 54.6142C23.1839 56.6707 22.1703 58.9914 20.1138 59.7976 19.6468 59.9807 19.1496 60.0743 18.648 60.0736L13.0586 60.0736C11.4019 60.0736 10.0589 61.4166 10.0589 63.0732L10.0589 72.0723 20.9978 72.0723C25.4128 72.0615 29.3748 69.3594 30.9967 65.253Z" fill="#FFFFFF" transform="matrix(1.00115 0 -0 1 113.839 106.694)"/><path d="M74.0421 11.7587C57.6838 11.9987 50.8446 22.5676 50.8446 35.8962 50.8446 49.2247 57.6838 59.9936 74.0421 59.9936 89.5904 59.9936 97.2396 49.1847 97.2396 35.8662 97.2396 22.5476 91.3102 11.5588 74.0421 11.7587ZM74.0421 50.0646C65.463 50.0646 62.8833 43.7253 62.8833 35.8962 62.8833 28.067 65.333 21.7177 74.0421 21.7177 83.0411 21.7177 85.2009 28.057 85.2009 35.8962 85.2009 43.7353 81.8112 50.0646 74.0421 50.0646Z" fill="#FFFFFF" transform="matrix(1.00115 0 -0 1 113.839 106.694)"/><path d="M134.666 36.4861C134.666 43.8053 131.396 49.7647 123.667 49.7447 115.528 49.7447 112.668 43.8053 112.668 36.4861L112.668 14.6084 112.668 14.6084C112.668 13.0346 111.392 11.7587 109.818 11.7587L100.369 11.7587 100.369 35.9961C100.369 36.0961 100.369 36.2061 100.369 36.3161 100.529 49.5347 107.828 60.1936 123.617 60.1936 138.945 60.1936 146.714 49.5347 146.874 36.3161 146.874 36.2061 146.874 36.0961 146.874 35.9961L146.874 11.7587 137.425 11.7587C135.85 11.7587 134.571 13.033 134.566 14.6084L134.566 14.6084Z" fill="#FFFFFF" transform="matrix(1.00115 0 -0 1 113.839 106.694)"/><path d="M174.611 11.4888 165.612 11.4888C158.03 11.4888 151.884 17.6352 151.884 25.2173L151.884 59.7036 159.703 59.7036C162.16 59.7036 164.152 57.7115 164.152 55.2541L164.152 27.3971C164.152 25.3909 165.776 23.763 167.782 23.7575L169.982 23.7575C172.533 23.7575 174.601 21.6892 174.601 19.138Z" fill="#FFFFFF" transform="matrix(1.00115 0 -0 1 113.839 106.694)"/><path d="M248.973 0.119987 240.314 0.119987 240.314 13.9985C236.766 12.5973 232.968 11.9437 229.155 12.0787 212.797 12.2687 205.958 22.8776 205.958 36.2061 205.958 49.5347 212.797 60.3435 229.155 60.3435 244.714 60.3435 252.363 49.5347 252.363 36.2061L252.363 3.49963C252.357 1.63149 250.841 0.119979 248.973 0.119987ZM229.165 50.4046C220.586 50.4046 218.007 44.0553 218.007 36.2261 218.007 28.397 220.456 22.0476 229.165 22.0476 238.165 22.0476 240.324 28.397 240.324 36.2261 240.324 44.0553 236.975 50.4046 229.165 50.4046Z" fill="#FFFFFF" transform="matrix(1.00115 0 -0 1 113.839 106.694)"/><path d="M302.198 40.7256C303.543 40.7178 304.653 39.6691 304.737 38.3259 304.787 37.576 304.807 36.8261 304.807 36.0561 304.819 34.0239 304.665 31.9941 304.347 29.9868 302.668 19.5479 296.158 11.7587 281.61 11.9287 265.252 12.1187 258.412 22.7276 258.412 36.0561 258.412 49.3847 265.252 60.1936 281.61 60.1936 292.259 60.1936 299.198 55.1241 302.518 47.6449 302.761 47.1003 302.516 46.4617 301.971 46.2187 301.829 46.155 301.674 46.1231 301.518 46.1251L290.069 46.1251C288.128 48.8396 284.944 50.3864 281.61 50.2346 274.831 50.2346 271.801 46.2351 270.831 40.7256ZM281.61 21.8777C288.079 21.8777 291.009 25.1973 292.149 29.9868L271.151 29.9868C272.311 25.1973 275.321 21.8777 281.61 21.8777Z" fill="#FFFFFF" transform="matrix(1.00115 0 -0 1 113.839 106.694)"/><path d="M339.374 15.2284 327.375 46.895 315.586 15.2484C314.864 13.3158 313.03 12.0251 310.967 11.9987L303.467 11.9987 320.656 58.4437C321.032 59.4544 321.997 60.1244 323.075 60.1236L331.514 60.1236C332.598 60.1372 333.575 59.475 333.964 58.4637L351.382 11.9987 343.963 11.9987C341.916 12.0341 340.098 13.3137 339.374 15.2284Z" fill="#FFFFFF" transform="matrix(1.00115 0 -0 1 113.839 106.694)"/><path d="M470.91 60.0636 477.229 60.0636 500.396 0 494.077 0 470.91 60.0636Z" fill="#FFFFFF" transform="matrix(1.00115 0 -0 1 113.839 106.694)"/><path d="M553.701 48.3348 564.88 48.3348 564.88 59.9336 553.701 59.9336Z" fill="#FFFFFF" transform="matrix(1.00115 0 -0 1 113.839 106.694)"/><path d="M477.359 11.8987 469.25 11.8987C467.186 11.8934 465.331 13.1564 464.58 15.0784L454.221 41.3256 444.422 15.1584C443.693 13.1946 441.818 11.8935 439.723 11.8987L431.014 11.8987 447.702 54.6142C448.508 56.6706 447.495 58.9914 445.438 59.7977 444.965 59.9832 444.461 60.0769 443.952 60.0736L438.363 60.0736C436.706 60.0736 435.363 61.4166 435.363 63.0732L435.363 72.0723 446.292 72.0723C450.707 72.0615 454.669 69.3594 456.291 65.253Z" fill="#FFFFFF" transform="matrix(1.00115 0 -0 1 113.839 106.694)"/><path d="M542.942 0.119987 534.283 0.119987 534.283 13.9985C530.735 12.5973 526.936 11.9437 523.124 12.0787 506.766 12.2687 499.926 22.8776 499.926 36.2061 499.926 49.5347 506.766 60.3435 523.124 60.3435 538.672 60.3435 546.322 49.5347 546.322 36.2061L546.322 3.49963C546.322 1.6331 544.808 0.119987 542.942 0.119987ZM523.164 50.4046C514.585 50.4046 512.005 44.0553 512.005 36.2261 512.005 28.397 514.455 22.0476 523.164 22.0476 532.163 22.0476 534.323 28.397 534.323 36.2261 534.323 44.0553 530.943 50.4046 523.164 50.4046Z" fill="#FFFFFF" transform="matrix(1.00115 0 -0 1 113.839 106.694)"/></g></g></g></g></svg>